<?xml version="1.0" encoding="UTF-8"?>
<svg version="1.1" xmlns="http://www.w3.org/2000/svg" width="180" height="180">
<path d="M0 0 C3.78921351 1.28562601 6.42976277 2.61706883 9.5 5.1875 C10.20710678 6.83741582 10.87943989 8.50312256 11.5 10.1875 C13.34971696 11.23771103 13.34971696 11.23771103 15.5 12.1875 C18.3042367 14.60044786 20.18447807 16.30403858 21.4375 19.8125 C21.5 22.1875 21.5 22.1875 19.5 25.1875 C17.5546875 25.48046875 17.5546875 25.48046875 15.375 25.375 C14.09625 25.313125 12.8175 25.25125 11.5 25.1875 C11.5 25.8475 11.5 26.5075 11.5 27.1875 C14.14 27.1875 16.78 27.1875 19.5 27.1875 C19.69335938 27.74179687 19.88671875 28.29609375 20.0859375 28.8671875 C20.47652344 29.95386719 20.47652344 29.95386719 20.875 31.0625 C21.13023438 31.78179687 21.38546875 32.50109375 21.6484375 33.2421875 C22.43877783 35.36907994 22.43877783 35.36907994 24.5 37.1875 C25.71159362 44.41134123 25.64550147 51.88009274 25.5 59.1875 C27.48 59.1875 29.46 59.1875 31.5 59.1875 C31.44199219 58.1975 31.38398437 57.2075 31.32421875 56.1875 C31.00606598 48.40605451 30.97398605 42.22719976 36.5 36.1875 C36.96019531 35.63320313 37.42039062 35.07890625 37.89453125 34.5078125 C39.98010215 32.79267147 41.20044688 32.7851155 43.875 32.8125 C44.62523437 32.80476563 45.37546875 32.79703125 46.1484375 32.7890625 C49.51317969 33.35916832 51.00854343 33.75712993 53.5 36.1875 C54.13905009 39.92689212 53.9670985 43.59566135 53.8125 47.375 C53.77866211 48.92864258 53.77866211 48.92864258 53.74414062 50.51367188 C53.68516846 53.07306404 53.60292567 55.62955951 53.5 58.1875 C54.24765625 58.14109375 54.9953125 58.0946875 55.765625 58.046875 C63.78509117 57.75296786 63.78509117 57.75296786 67.19921875 59.828125 C68.85880761 62.8383102 68.68630925 64.54243245 68.3125 67.9375 C68.10030657 72.89676368 68.62510362 75.13446922 72 78.8125 C72.6496875 79.42351562 73.299375 80.03453125 73.96875 80.6640625 C74.72671875 81.41816406 74.72671875 81.41816406 75.5 82.1875 C75.5 82.8475 75.5 83.5075 75.5 84.1875 C76.82 84.8475 78.14 85.5075 79.5 86.1875 C79.81848901 90.31137701 80.08705697 94.43535413 80.31176758 98.56542969 C80.39479113 99.96667382 80.49089678 101.36721145 80.60083008 102.76660156 C81.61564187 115.87965348 81.61564187 115.87965348 77.12890625 121.15625 C73.97486631 124.1875 73.97486631 124.1875 71.5 124.1875 C71.5 124.8475 71.5 125.5075 71.5 126.1875 C70.860625 126.47625 70.22125 126.765 69.5625 127.0625 C67.34793921 128.01573451 67.34793921 128.01573451 66.5 130.1875 C65.84 130.1875 65.18 130.1875 64.5 130.1875 C64.5 131.1775 64.5 132.1675 64.5 133.1875 C60.73699626 134.44183458 57.22789091 134.29445422 53.3125 134.25 C52.56291016 134.24548828 51.81332031 134.24097656 51.04101562 134.23632812 C49.19397617 134.22456354 47.34697787 134.20662865 45.5 134.1875 C44.84 135.8375 44.18 137.4875 43.5 139.1875 C40.53 139.1875 37.56 139.1875 34.5 139.1875 C34.5 138.5275 34.5 137.8675 34.5 137.1875 C33.84 137.1875 33.18 137.1875 32.5 137.1875 C32.17 138.1775 31.84 139.1675 31.5 140.1875 C30.84 140.1875 30.18 140.1875 29.5 140.1875 C29.438125 140.785625 29.37625 141.38375 29.3125 142 C28.14234268 145.15042355 26.47631293 145.72610153 23.5 147.1875 C20.5625 147.5234375 20.5625 147.5234375 17.5 147.5625 C12.56760107 147.82262323 12.56760107 147.82262323 8.5 150.625 C7.84 151.470625 7.18 152.31625 6.5 153.1875 C3.58490994 155.0009212 1.3498267 155.46059527 -2.0625 155.4375 C-2.82691406 155.44265625 -3.59132813 155.4478125 -4.37890625 155.453125 C-6.5 155.1875 -6.5 155.1875 -9.5 153.1875 C-9.479375 152.383125 -9.45875 151.57875 -9.4375 150.75 C-9.2078026 148.09921264 -9.2078026 148.09921264 -11.15625 146.52734375 C-14.05709803 144.86902563 -15.75566541 144.97154346 -19.0625 145.1875 C-24.06670878 145.51341862 -24.06670878 145.51341862 -26.28125 143.84765625 C-27.5 142.1875 -27.5 142.1875 -28.4375 139.625 C-29.28929161 137.03878305 -29.28929161 137.03878305 -31.625 135.875 C-32.553125 135.5346875 -32.553125 135.5346875 -33.5 135.1875 C-33.83 135.5175 -34.16 135.8475 -34.5 136.1875 C-36.01928038 136.25929964 -37.54167482 136.27142007 -39.0625 136.25 C-39.88878906 136.24097656 -40.71507812 136.23195312 -41.56640625 136.22265625 C-42.20449219 136.21105469 -42.84257813 136.19945312 -43.5 136.1875 C-43.5 135.5275 -43.5 134.8675 -43.5 134.1875 C-44.42337158 134.19797363 -45.34674316 134.20844727 -46.2980957 134.21923828 C-49.72536718 134.2533319 -53.15245833 134.27840446 -56.57983398 134.29736328 C-58.06293583 134.30741821 -59.54601788 134.32106404 -61.02905273 134.33837891 C-63.16134531 134.36265006 -65.29337569 134.37398799 -67.42578125 134.3828125 C-69.35031128 134.39852295 -69.35031128 134.39852295 -71.3137207 134.41455078 C-74.5 134.1875 -74.5 134.1875 -77.5 132.1875 C-78.16666667 130.85416667 -78.83333333 129.52083333 -79.5 128.1875 C-80.49 127.5275 -81.48 126.8675 -82.5 126.1875 C-82.5 125.5275 -82.5 124.8675 -82.5 124.1875 C-83.82 124.1875 -85.14 124.1875 -86.5 124.1875 C-87.80459914 121.57830172 -87.6326594 119.59807385 -87.625 116.6875 C-87.62757812 115.7078125 -87.63015625 114.728125 -87.6328125 113.71875 C-87.5 111.1875 -87.5 111.1875 -86.5 109.1875 C-85.84 109.1875 -85.18 109.1875 -84.5 109.1875 C-84.5 108.5275 -84.5 107.8675 -84.5 107.1875 C-83.51 106.6925 -83.51 106.6925 -82.5 106.1875 C-82.3453125 104.5478125 -82.3453125 104.5478125 -82.1875 102.875 C-81.5 99.1875 -81.5 99.1875 -79.1875 96.75 C-76.5 95.1875 -76.5 95.1875 -72.5 95.1875 C-70.42377281 88.13893261 -70.42377281 88.13893261 -71.9375 81.3125 C-74.25835663 79.23389464 -74.25835663 79.23389464 -76.23974609 78.28833008 C-79.37161166 76.56004721 -81.16733669 75.24920505 -82.26098633 71.75878906 C-82.6323732 68.72136561 -82.72446941 65.80998374 -82.6875 62.75 C-82.68322998 61.67919189 -82.67895996 60.60838379 -82.67456055 59.50512695 C-82.24270818 50.27018379 -79.22161713 44.95788584 -72.61328125 38.69921875 C-71.58642165 37.84864473 -70.54959946 37.00984893 -69.5 36.1875 C-68.76265625 35.58035156 -68.0253125 34.97320312 -67.265625 34.34765625 C-62.90009741 32.51635442 -58.61640958 32.83501875 -53.9375 32.9375 C-52.99197266 32.94265625 -52.04644531 32.9478125 -51.07226562 32.953125 C-44.10541861 33.03190207 -44.10541861 33.03190207 -41.26196289 33.76269531 C-40.68051514 33.90288086 -40.09906738 34.04306641 -39.5 34.1875 C-39.17 33.8575 -38.84 33.5275 -38.5 33.1875 C-36.35546875 32.984375 -36.35546875 32.984375 -33.6875 32.9375 C-32.81480469 32.91171875 -31.94210938 32.8859375 -31.04296875 32.859375 C-28.06095623 33.24415081 -26.7228886 34.21850777 -24.5 36.1875 C-21.94309577 35.10494593 -21.94309577 35.10494593 -19.5 33.1875 C-18.60792821 30.0917893 -18.60792821 30.0917893 -18.5 27.1875 C-15.53 26.8575 -12.56 26.5275 -9.5 26.1875 C-9.005 24.7025 -9.005 24.7025 -8.5 23.1875 C-9.428125 23.249375 -10.35625 23.31125 -11.3125 23.375 C-14.5 23.1875 -14.5 23.1875 -16.4375 22 C-17.5 20.1875 -17.5 20.1875 -17.1875 17.5 C-16.960625 16.736875 -16.73375 15.97375 -16.5 15.1875 C-15.51 14.8575 -14.52 14.5275 -13.5 14.1875 C-13.17 13.1975 -12.84 12.2075 -12.5 11.1875 C-11.84 11.1875 -11.18 11.1875 -10.5 11.1875 C-10.38914062 10.60613281 -10.27828125 10.02476563 -10.1640625 9.42578125 C-8.62711291 4.24535705 -5.48168494 0.29366169 0 0 Z M-42.5 80.1875 C-44.48 81.1775 -44.48 81.1775 -46.5 82.1875 C-46.17 83.5075 -45.84 84.8275 -45.5 86.1875 C-43.19 86.1875 -40.88 86.1875 -38.5 86.1875 C-38.83 85.5275 -39.16 84.8675 -39.5 84.1875 C-40.16 84.1875 -40.82 84.1875 -41.5 84.1875 C-41.83 82.8675 -42.16 81.5475 -42.5 80.1875 Z M-38.5 89.1875 C-38.5 92.1575 -38.5 95.1275 -38.5 98.1875 C-37.84 97.8575 -37.18 97.5275 -36.5 97.1875 C-36.83 94.5475 -37.16 91.9075 -37.5 89.1875 C-37.83 89.1875 -38.16 89.1875 -38.5 89.1875 Z " fill="#16071B" transform="translate(92.5,10.8125)"/>
<path d="M0 0 C3.25 1.0625 3.25 1.0625 5.25 3.0625 C3.39375 2.9078125 3.39375 2.9078125 1.5 2.75 C-0.69153035 2.66820179 -0.69153035 2.66820179 -2.75 3.0625 C-5.15406384 5.44092577 -5.15406384 5.44092577 -6.75 8.0625 C-7.41 8.0625 -8.07 8.0625 -8.75 8.0625 C-8.75 9.3825 -8.75 10.7025 -8.75 12.0625 C-9.74 12.0625 -10.73 12.0625 -11.75 12.0625 C-12.08 13.3825 -12.41 14.7025 -12.75 16.0625 C-13.41 16.0625 -14.07 16.0625 -14.75 16.0625 C-14.75 17.0525 -14.75 18.0425 -14.75 19.0625 C-10.79 17.5775 -10.79 17.5775 -6.75 16.0625 C-6.255 17.0525 -6.255 17.0525 -5.75 18.0625 C-2.61276108 19.10824631 -0.46961247 19.13242517 2.8125 19.0625 C8.02834395 18.95167197 8.02834395 18.95167197 10.25 20.0625 C10.58 19.4025 10.91 18.7425 11.25 18.0625 C11.25 18.7225 11.25 19.3825 11.25 20.0625 C12.735 20.5575 12.735 20.5575 14.25 21.0625 C7.59362157 22.30089599 1.0028064 22.15389136 -5.75 22.0625 C-6.08 24.3725 -6.41 26.6825 -6.75 29.0625 C-10.05 29.0625 -13.35 29.0625 -16.75 29.0625 C-16.75 30.7125 -16.75 32.3625 -16.75 34.0625 C-14.44 34.0625 -12.13 34.0625 -9.75 34.0625 C-9.75 34.7225 -9.75 35.3825 -9.75 36.0625 C-13.71 36.0625 -17.67 36.0625 -21.75 36.0625 C-21.75 40.3525 -21.75 44.6425 -21.75 49.0625 C-23.73 49.0625 -25.71 49.0625 -27.75 49.0625 C-27.75 44.7725 -27.75 40.4825 -27.75 36.0625 C-31.71 36.0625 -35.67 36.0625 -39.75 36.0625 C-39.75 49.2625 -39.75 62.4625 -39.75 76.0625 C-35.79 76.0625 -31.83 76.0625 -27.75 76.0625 C-28.08 77.7125 -28.41 79.3625 -28.75 81.0625 C-29.41 81.0625 -30.07 81.0625 -30.75 81.0625 C-30.75 81.7225 -30.75 82.3825 -30.75 83.0625 C-31.41 83.0625 -32.07 83.0625 -32.75 83.0625 C-32.73839844 83.76890625 -32.72679687 84.4753125 -32.71484375 85.203125 C-32.62416775 95.5142812 -33.17536419 105.77036223 -33.75 116.0625 C-30.12 116.0625 -26.49 116.0625 -22.75 116.0625 C-22.75 113.7525 -22.75 111.4425 -22.75 109.0625 C-23.74 109.0625 -24.73 109.0625 -25.75 109.0625 C-25.75 108.4025 -25.75 107.7425 -25.75 107.0625 C-22.12 107.0625 -18.49 107.0625 -14.75 107.0625 C-14.75 110.0325 -14.75 113.0025 -14.75 116.0625 C-11.12 116.0625 -7.49 116.0625 -3.75 116.0625 C-3.75 109.4625 -3.75 102.8625 -3.75 96.0625 C-4.41 96.0625 -5.07 96.0625 -5.75 96.0625 C-5.60831863 94.62458484 -5.46148957 93.1871763 -5.3125 91.75 C-5.19068359 90.54923828 -5.19068359 90.54923828 -5.06640625 89.32421875 C-4.75 87.0625 -4.75 87.0625 -3.75 84.0625 C-2.43 84.0625 -1.11 84.0625 0.25 84.0625 C0.25 96.6025 0.25 109.1425 0.25 122.0625 C4.54 122.0625 8.83 122.0625 13.25 122.0625 C13.25 120.7425 13.25 119.4225 13.25 118.0625 C9.62 118.0625 5.99 118.0625 2.25 118.0625 C2.25 117.4025 2.25 116.7425 2.25 116.0625 C5.88 116.0625 9.51 116.0625 13.25 116.0625 C13.25 110.1225 13.25 104.1825 13.25 98.0625 C14.735 98.5575 14.735 98.5575 16.25 99.0625 C16.25 99.7225 16.25 100.3825 16.25 101.0625 C16.91 101.0625 17.57 101.0625 18.25 101.0625 C18.25 103.7025 18.25 106.3425 18.25 109.0625 C19.57 109.0625 20.89 109.0625 22.25 109.0625 C22.58 111.0425 22.91 113.0225 23.25 115.0625 C28.2 115.3925 33.15 115.7225 38.25 116.0625 C38.25 103.8525 38.25 91.6425 38.25 79.0625 C38.58 79.0625 38.91 79.0625 39.25 79.0625 C39.58 85.3325 39.91 91.6025 40.25 98.0625 C40.58 98.0625 40.91 98.0625 41.25 98.0625 C41.25 105.9825 41.25 113.9025 41.25 122.0625 C49.5 122.0625 57.75 122.0625 66.25 122.0625 C66.25 120.7425 66.25 119.4225 66.25 118.0625 C58.66 118.0625 51.07 118.0625 43.25 118.0625 C43.25 117.4025 43.25 116.7425 43.25 116.0625 C52.16 115.7325 61.07 115.4025 70.25 115.0625 C70.25 114.4025 70.25 113.7425 70.25 113.0625 C71.9 113.0625 73.55 113.0625 75.25 113.0625 C75.58 104.1525 75.91 95.2425 76.25 86.0625 C75.59 86.0625 74.93 86.0625 74.25 86.0625 C74.25 85.4025 74.25 84.7425 74.25 84.0625 C73.26 84.0625 72.27 84.0625 71.25 84.0625 C71.25 83.4025 71.25 82.7425 71.25 82.0625 C70.26 82.0625 69.27 82.0625 68.25 82.0625 C68.25 80.7425 68.25 79.4225 68.25 78.0625 C67.52409668 78.06773682 66.79819336 78.07297363 66.05029297 78.07836914 C62.74187088 78.09923497 59.43346269 78.11219069 56.125 78.125 C54.41183594 78.13756836 54.41183594 78.13756836 52.6640625 78.15039062 C51.00117188 78.15522461 51.00117188 78.15522461 49.3046875 78.16015625 C47.78077393 78.16801147 47.78077393 78.16801147 46.22607422 78.17602539 C43.15885274 78.05902309 40.26366866 77.63026417 37.25 77.0625 C37.25 76.7325 37.25 76.4025 37.25 76.0625 C46.49 76.0625 55.73 76.0625 65.25 76.0625 C65.25 74.7425 65.25 73.4225 65.25 72.0625 C56.34 72.0625 47.43 72.0625 38.25 72.0625 C38.25 71.7325 38.25 71.4025 38.25 71.0625 C47.16 71.0625 56.07 71.0625 65.25 71.0625 C65.25 67.7625 65.25 64.4625 65.25 61.0625 C60.3 61.0625 55.35 61.0625 50.25 61.0625 C50.25 52.8125 50.25 44.5625 50.25 36.0625 C51.24 36.0625 52.23 36.0625 53.25 36.0625 C53.25 43.3225 53.25 50.5825 53.25 58.0625 C56.88 58.0625 60.51 58.0625 64.25 58.0625 C66.94921875 59.703125 66.94921875 59.703125 68.25 62.0625 C68.39453125 64.796875 68.39453125 64.796875 68.0625 67.8125 C67.85030657 72.77176368 68.37510362 75.00946922 71.75 78.6875 C72.3996875 79.29851562 73.049375 79.90953125 73.71875 80.5390625 C74.47671875 81.29316406 74.47671875 81.29316406 75.25 82.0625 C75.25 82.7225 75.25 83.3825 75.25 84.0625 C76.57 84.7225 77.89 85.3825 79.25 86.0625 C79.56848901 90.18637701 79.83705697 94.31035413 80.06176758 98.44042969 C80.14479113 99.84167382 80.24089678 101.24221145 80.35083008 102.64160156 C81.36564187 115.75465348 81.36564187 115.75465348 76.87890625 121.03125 C73.72486631 124.0625 73.72486631 124.0625 71.25 124.0625 C71.25 124.7225 71.25 125.3825 71.25 126.0625 C70.610625 126.35125 69.97125 126.64 69.3125 126.9375 C67.09793921 127.89073451 67.09793921 127.89073451 66.25 130.0625 C65.59 130.0625 64.93 130.0625 64.25 130.0625 C64.25 131.0525 64.25 132.0425 64.25 133.0625 C60.48699626 134.31683458 56.97789091 134.16945422 53.0625 134.125 C52.31291016 134.12048828 51.56332031 134.11597656 50.79101562 134.11132812 C48.94397617 134.09956354 47.09697787 134.08162865 45.25 134.0625 C44.59 135.7125 43.93 137.3625 43.25 139.0625 C40.28 139.0625 37.31 139.0625 34.25 139.0625 C34.25 138.4025 34.25 137.7425 34.25 137.0625 C33.59 137.0625 32.93 137.0625 32.25 137.0625 C31.92 138.0525 31.59 139.0425 31.25 140.0625 C30.59 140.0625 29.93 140.0625 29.25 140.0625 C29.188125 140.660625 29.12625 141.25875 29.0625 141.875 C27.89234268 145.02542355 26.22631293 145.60110153 23.25 147.0625 C20.3125 147.3984375 20.3125 147.3984375 17.25 147.4375 C12.31760107 147.69762323 12.31760107 147.69762323 8.25 150.5 C7.59 151.345625 6.93 152.19125 6.25 153.0625 C3.33490994 154.8759212 1.0998267 155.33559527 -2.3125 155.3125 C-3.07691406 155.31765625 -3.84132813 155.3228125 -4.62890625 155.328125 C-6.75 155.0625 -6.75 155.0625 -9.75 153.0625 C-9.729375 152.258125 -9.70875 151.45375 -9.6875 150.625 C-9.4578026 147.97421264 -9.4578026 147.97421264 -11.40625 146.40234375 C-14.30709803 144.74402563 -16.00566541 144.84654346 -19.3125 145.0625 C-24.31670878 145.38841862 -24.31670878 145.38841862 -26.53125 143.72265625 C-27.75 142.0625 -27.75 142.0625 -28.6875 139.5 C-29.53929161 136.91378305 -29.53929161 136.91378305 -31.875 135.75 C-32.803125 135.4096875 -32.803125 135.4096875 -33.75 135.0625 C-34.08 135.3925 -34.41 135.7225 -34.75 136.0625 C-36.26928038 136.13429964 -37.79167482 136.14642007 -39.3125 136.125 C-40.13878906 136.11597656 -40.96507812 136.10695312 -41.81640625 136.09765625 C-42.45449219 136.08605469 -43.09257813 136.07445312 -43.75 136.0625 C-43.75 135.4025 -43.75 134.7425 -43.75 134.0625 C-44.67337158 134.07297363 -45.59674316 134.08344727 -46.5480957 134.09423828 C-49.97536718 134.1283319 -53.40245833 134.15340446 -56.82983398 134.17236328 C-58.31293583 134.18241821 -59.79601788 134.19606404 -61.27905273 134.21337891 C-63.41134531 134.23765006 -65.54337569 134.24898799 -67.67578125 134.2578125 C-69.60031128 134.27352295 -69.60031128 134.27352295 -71.5637207 134.28955078 C-74.75 134.0625 -74.75 134.0625 -77.75 132.0625 C-78.41666667 130.72916667 -79.08333333 129.39583333 -79.75 128.0625 C-80.74 127.4025 -81.73 126.7425 -82.75 126.0625 C-82.75 125.4025 -82.75 124.7425 -82.75 124.0625 C-84.07 124.0625 -85.39 124.0625 -86.75 124.0625 C-88.05459914 121.45330172 -87.8826594 119.47307385 -87.875 116.5625 C-87.87757812 115.5828125 -87.88015625 114.603125 -87.8828125 113.59375 C-87.75 111.0625 -87.75 111.0625 -86.75 109.0625 C-86.09 109.0625 -85.43 109.0625 -84.75 109.0625 C-84.75 108.4025 -84.75 107.7425 -84.75 107.0625 C-83.76 106.5675 -83.76 106.5675 -82.75 106.0625 C-82.5953125 104.4228125 -82.5953125 104.4228125 -82.4375 102.75 C-81.75 99.0625 -81.75 99.0625 -79.4375 96.625 C-76.75 95.0625 -76.75 95.0625 -72.75 95.0625 C-70.67377281 88.01393261 -70.67377281 88.01393261 -72.1875 81.1875 C-74.50835663 79.10889464 -74.50835663 79.10889464 -76.48974609 78.16333008 C-79.62161166 76.43504721 -81.41733669 75.12420505 -82.51098633 71.63378906 C-82.8823732 68.59636561 -82.97446941 65.68498374 -82.9375 62.625 C-82.93322998 61.55419189 -82.92895996 60.48338379 -82.92456055 59.38012695 C-82.49270818 50.14518379 -79.47161713 44.83288584 -72.86328125 38.57421875 C-71.83642165 37.72364473 -70.79959946 36.88484893 -69.75 36.0625 C-69.01265625 35.45535156 -68.2753125 34.84820312 -67.515625 34.22265625 C-63.15009741 32.39135442 -58.86640958 32.71001875 -54.1875 32.8125 C-53.24197266 32.81765625 -52.29644531 32.8228125 -51.32226562 32.828125 C-44.35541861 32.90690207 -44.35541861 32.90690207 -41.51196289 33.63769531 C-40.93051514 33.77788086 -40.34906738 33.91806641 -39.75 34.0625 C-39.42 33.7325 -39.09 33.4025 -38.75 33.0625 C-36.60546875 32.859375 -36.60546875 32.859375 -33.9375 32.8125 C-33.06480469 32.78671875 -32.19210938 32.7609375 -31.29296875 32.734375 C-28.31095623 33.11915081 -26.9728886 34.09350777 -24.75 36.0625 C-22.19309577 34.97994593 -22.19309577 34.97994593 -19.75 33.0625 C-18.85792821 29.9667893 -18.85792821 29.9667893 -18.75 27.0625 C-15.78 26.7325 -12.81 26.4025 -9.75 26.0625 C-9.255 24.5775 -9.255 24.5775 -8.75 23.0625 C-9.678125 23.124375 -10.60625 23.18625 -11.5625 23.25 C-14.75 23.0625 -14.75 23.0625 -16.6875 21.875 C-17.75 20.0625 -17.75 20.0625 -17.4375 17.375 C-17.210625 16.611875 -16.98375 15.84875 -16.75 15.0625 C-15.76 14.7325 -14.77 14.4025 -13.75 14.0625 C-13.42 13.0725 -13.09 12.0825 -12.75 11.0625 C-12.09 11.0625 -11.43 11.0625 -10.75 11.0625 C-10.63914062 10.48113281 -10.52828125 9.89976563 -10.4140625 9.30078125 C-8.82122666 3.93198752 -5.6705652 0.09450942 0 0 Z M-42.75 80.0625 C-44.73 81.0525 -44.73 81.0525 -46.75 82.0625 C-46.42 83.3825 -46.09 84.7025 -45.75 86.0625 C-43.44 86.0625 -41.13 86.0625 -38.75 86.0625 C-39.08 85.4025 -39.41 84.7425 -39.75 84.0625 C-40.41 84.0625 -41.07 84.0625 -41.75 84.0625 C-42.08 82.7425 -42.41 81.4225 -42.75 80.0625 Z M-38.75 89.0625 C-38.75 92.0325 -38.75 95.0025 -38.75 98.0625 C-38.09 97.7325 -37.43 97.4025 -36.75 97.0625 C-37.08 94.4225 -37.41 91.7825 -37.75 89.0625 C-38.08 89.0625 -38.41 89.0625 -38.75 89.0625 Z " fill="#1B0820" transform="translate(92.75,10.9375)"/>
<path d="M0 0 C0.7734375 -0.00773437 1.546875 -0.01546875 2.34375 -0.0234375 C5.09095848 0.48419885 5.83461766 1.14390411 7.5 3.375 C7.7487793 6.01049805 7.7487793 6.01049805 7.57421875 9.13671875 C7.51943359 10.25498047 7.46464844 11.37324219 7.40820312 12.52539062 C7.29895508 14.27625977 7.29895508 14.27625977 7.1875 16.0625 C7.12626953 17.24134766 7.06503906 18.42019531 7.00195312 19.63476562 C6.84857531 22.5489442 6.67608903 25.46210553 6.5 28.375 C11.45 28.375 16.4 28.375 21.5 28.375 C21.5 33.325 21.5 38.275 21.5 43.375 C14.24 43.705 6.98 44.035 -0.5 44.375 C7.75 44.705 16 45.035 24.5 45.375 C24.5 46.695 24.5 48.015 24.5 49.375 C25.49 49.375 26.48 49.375 27.5 49.375 C27.5 50.035 27.5 50.695 27.5 51.375 C28.49 51.375 29.48 51.375 30.5 51.375 C30.5 52.035 30.5 52.695 30.5 53.375 C31.16 53.375 31.82 53.375 32.5 53.375 C32.52898816 57.31248458 32.54679464 61.24994179 32.5625 65.1875 C32.57087891 66.30705078 32.57925781 67.42660156 32.58789062 68.58007812 C32.59111328 69.65322266 32.59433594 70.72636719 32.59765625 71.83203125 C32.60289307 72.82178955 32.60812988 73.81154785 32.61352539 74.83129883 C32.5 77.375 32.5 77.375 31.5 80.375 C29.85 80.375 28.2 80.375 26.5 80.375 C26.5 81.035 26.5 81.695 26.5 82.375 C23.29217914 83.32876567 20.41812604 83.49121181 17.078125 83.47265625 C16.05332031 83.46943359 15.02851563 83.46621094 13.97265625 83.46289062 C12.90917969 83.45451172 11.84570312 83.44613281 10.75 83.4375 C9.67105469 83.43298828 8.59210938 83.42847656 7.48046875 83.42382812 C4.82025617 83.41205727 2.16015635 83.39561399 -0.5 83.375 C-0.5 84.035 -0.5 84.695 -0.5 85.375 C7.09 85.375 14.68 85.375 22.5 85.375 C22.5 86.695 22.5 88.015 22.5 89.375 C14.25 89.375 6 89.375 -2.5 89.375 C-2.83 81.785 -3.16 74.195 -3.5 66.375 C-3.83 66.375 -4.16 66.375 -4.5 66.375 C-4.83 59.775 -5.16 53.175 -5.5 46.375 C-9.79 46.045 -14.08 45.715 -18.5 45.375 C-18.5 50.325 -18.5 55.275 -18.5 60.375 C-19.16 60.375 -19.82 60.375 -20.5 60.375 C-20.5 59.715 -20.5 59.055 -20.5 58.375 C-21.49 58.375 -22.48 58.375 -23.5 58.375 C-23.5 57.385 -23.5 56.395 -23.5 55.375 C-24.16 55.375 -24.82 55.375 -25.5 55.375 C-25.5 54.715 -25.5 54.055 -25.5 53.375 C-26.16 53.375 -26.82 53.375 -27.5 53.375 C-27.5 52.385 -27.5 51.395 -27.5 50.375 C-28.49 50.375 -29.48 50.375 -30.5 50.375 C-30.5 48.725 -30.5 47.075 -30.5 45.375 C-34.46 45.375 -38.42 45.375 -42.5 45.375 C-41.51 44.715 -40.52 44.055 -39.5 43.375 C-39.17 42.055 -38.84 40.735 -38.5 39.375 C-41.8 39.375 -45.1 39.375 -48.5 39.375 C-48.5 39.045 -48.5 38.715 -48.5 38.375 C-44.87 38.375 -41.24 38.375 -37.5 38.375 C-37.5 32.765 -37.5 27.155 -37.5 21.375 C-36.84 21.045 -36.18 20.715 -35.5 20.375 C-35.17 26.315 -34.84 32.255 -34.5 38.375 C-25.92 38.375 -17.34 38.375 -8.5 38.375 C-8.5 35.075 -8.5 31.775 -8.5 28.375 C-13.12 28.375 -17.74 28.375 -22.5 28.375 C-22.5 19.795 -22.5 11.215 -22.5 2.375 C-19.5 4.375 -19.5 4.375 -18.98828125 6.84375 C-18.93027344 7.8440625 -18.87226562 8.844375 -18.8125 9.875 C-18.74804688 10.94234375 -18.68359375 12.0096875 -18.6171875 13.109375 C-18.45838139 17.53477193 -18.41184658 21.94773927 -18.5 26.375 C-16.52 26.375 -14.54 26.375 -12.5 26.375 C-12.55800781 25.385 -12.61601563 24.395 -12.67578125 23.375 C-12.99393402 15.59355451 -13.02601395 9.41469976 -7.5 3.375 C-7.04238281 2.82070313 -6.58476562 2.26640625 -6.11328125 1.6953125 C-3.99671412 -0.03689014 -2.70751346 -0.02707513 0 0 Z " fill="#1B1126" transform="translate(136.5,43.625)"/>
<path d="M0 0 C8.25 0 16.5 0 25 0 C25 0.99 25 1.98 25 3 C25.99 3 26.98 3 28 3 C28 3.66 28 4.32 28 5 C28.99 5 29.98 5 31 5 C31 5.66 31 6.32 31 7 C31.66 7 32.32 7 33 7 C33.02898816 10.93748458 33.04679464 14.87494179 33.0625 18.8125 C33.07087891 19.93205078 33.07925781 21.05160156 33.08789062 22.20507812 C33.09111328 23.27822266 33.09433594 24.35136719 33.09765625 25.45703125 C33.10289307 26.44678955 33.10812988 27.43654785 33.11352539 28.45629883 C33 31 33 31 32 34 C30.35 34 28.7 34 27 34 C27 34.66 27 35.32 27 36 C23.72373625 36.9821994 20.77211881 37.11580914 17.359375 37.09765625 C16.28945312 37.09443359 15.21953125 37.09121094 14.1171875 37.08789062 C13.00601563 37.07951172 11.89484375 37.07113281 10.75 37.0625 C9.06003906 37.05573242 9.06003906 37.05573242 7.3359375 37.04882812 C4.55723783 37.03705397 1.77864591 37.0206084 -1 37 C-1.11747832 24.6087484 -0.92407585 12.35951453 0 0 Z " fill="#51EFF2" transform="translate(136,90)"/>
<path d="M0 0 C3.96 0 7.92 0 12 0 C12 1.65 12 3.3 12 5 C12.99 5 13.98 5 15 5 C15 5.99 15 6.98 15 8 C15.66 8 16.32 8 17 8 C17 8.66 17 9.32 17 10 C17.66 10 18.32 10 19 10 C19 10.99 19 11.98 19 13 C19.99 13 20.98 13 22 13 C22 13.66 22 14.32 22 15 C22.66 15 23.32 15 24 15 C24 10.05 24 5.1 24 0 C28.29 0 32.58 0 37 0 C37 12.54 37 25.08 37 38 C32.05 38 27.1 38 22 38 C21 37 21 37 20.9375 33.9375 C20.958125 32.968125 20.97875 31.99875 21 31 C19.68 31 18.36 31 17 31 C17 28.36 17 25.72 17 23 C16.34 23 15.68 23 15 23 C14.01 22.01 13.02 21.02 12 20 C12 25.94 12 31.88 12 38 C8.04 38 4.08 38 0 38 C0 25.46 0 12.92 0 0 Z " fill="#5AEAED" transform="translate(94,89)"/>
<path d="M0 0 C3.25 1.0625 3.25 1.0625 5.25 3.0625 C3.39375 2.9078125 3.39375 2.9078125 1.5 2.75 C-0.69153035 2.66820179 -0.69153035 2.66820179 -2.75 3.0625 C-5.15406384 5.44092577 -5.15406384 5.44092577 -6.75 8.0625 C-7.41 8.0625 -8.07 8.0625 -8.75 8.0625 C-8.75 9.3825 -8.75 10.7025 -8.75 12.0625 C-9.74 12.0625 -10.73 12.0625 -11.75 12.0625 C-12.08 13.3825 -12.41 14.7025 -12.75 16.0625 C-13.41 16.0625 -14.07 16.0625 -14.75 16.0625 C-14.75 17.0525 -14.75 18.0425 -14.75 19.0625 C-10.79 17.5775 -10.79 17.5775 -6.75 16.0625 C-6.255 17.0525 -6.255 17.0525 -5.75 18.0625 C-2.61276108 19.10824631 -0.46961247 19.13242517 2.8125 19.0625 C8.02834395 18.95167197 8.02834395 18.95167197 10.25 20.0625 C10.58 19.4025 10.91 18.7425 11.25 18.0625 C11.25 18.7225 11.25 19.3825 11.25 20.0625 C12.735 20.5575 12.735 20.5575 14.25 21.0625 C7.59362157 22.30089599 1.0028064 22.15389136 -5.75 22.0625 C-6.08 24.3725 -6.41 26.6825 -6.75 29.0625 C-10.05 29.0625 -13.35 29.0625 -16.75 29.0625 C-16.75 30.7125 -16.75 32.3625 -16.75 34.0625 C-14.44 34.0625 -12.13 34.0625 -9.75 34.0625 C-9.75 34.7225 -9.75 35.3825 -9.75 36.0625 C-13.71 36.0625 -17.67 36.0625 -21.75 36.0625 C-21.75 40.3525 -21.75 44.6425 -21.75 49.0625 C-23.73 49.0625 -25.71 49.0625 -27.75 49.0625 C-27.75 44.7725 -27.75 40.4825 -27.75 36.0625 C-31.71 36.0625 -35.67 36.0625 -39.75 36.0625 C-39.75 49.2625 -39.75 62.4625 -39.75 76.0625 C-35.79 76.0625 -31.83 76.0625 -27.75 76.0625 C-28.08 77.7125 -28.41 79.3625 -28.75 81.0625 C-29.41 81.0625 -30.07 81.0625 -30.75 81.0625 C-30.75 81.7225 -30.75 82.3825 -30.75 83.0625 C-31.41 83.0625 -32.07 83.0625 -32.75 83.0625 C-32.75 87.3525 -32.75 91.6425 -32.75 96.0625 C-33.41 96.0625 -34.07 96.0625 -34.75 96.0625 C-34.75 99.0325 -34.75 102.0025 -34.75 105.0625 C-36.73 105.5575 -36.73 105.5575 -38.75 106.0625 C-40.21870513 100.81712454 -40.91496581 95.50637164 -40.75 90.0625 C-43.72 90.0625 -46.69 90.0625 -49.75 90.0625 C-49.75 92.3725 -49.75 94.6825 -49.75 97.0625 C-50.08 97.0625 -50.41 97.0625 -50.75 97.0625 C-50.75 90.7925 -50.75 84.5225 -50.75 78.0625 C-55.04 78.0625 -59.33 78.0625 -63.75 78.0625 C-63.75 77.7325 -63.75 77.4025 -63.75 77.0625 C-56.49 77.0625 -49.23 77.0625 -41.75 77.0625 C-41.75 75.4125 -41.75 73.7625 -41.75 72.0625 C-50 72.0625 -58.25 72.0625 -66.75 72.0625 C-66.75 71.7325 -66.75 71.4025 -66.75 71.0625 C-58.5 71.0625 -50.25 71.0625 -41.75 71.0625 C-41.75 67.7625 -41.75 64.4625 -41.75 61.0625 C-47.69 61.0625 -53.63 61.0625 -59.75 61.0625 C-59.75 56.1125 -59.75 51.1625 -59.75 46.0625 C-53.81 46.0625 -47.87 46.0625 -41.75 46.0625 C-41.75 42.7625 -41.75 39.4625 -41.75 36.0625 C-50 36.0625 -58.25 36.0625 -66.75 36.0625 C-66.09 35.0725 -65.43 34.0825 -64.75 33.0625 C-62.65869141 32.70605469 -62.65869141 32.70605469 -60.1015625 32.734375 C-58.71710937 32.74210937 -58.71710937 32.74210937 -57.3046875 32.75 C-56.33789062 32.770625 -55.37109375 32.79125 -54.375 32.8125 C-53.4159375 32.81765625 -52.456875 32.8228125 -51.46875 32.828125 C-44.35532411 32.90738323 -44.35532411 32.90738323 -41.50537109 33.63769531 C-40.92609863 33.77788086 -40.34682617 33.91806641 -39.75 34.0625 C-39.42 33.7325 -39.09 33.4025 -38.75 33.0625 C-36.60546875 32.859375 -36.60546875 32.859375 -33.9375 32.8125 C-33.06480469 32.78671875 -32.19210938 32.7609375 -31.29296875 32.734375 C-28.31095623 33.11915081 -26.9728886 34.09350777 -24.75 36.0625 C-22.19309577 34.97994593 -22.19309577 34.97994593 -19.75 33.0625 C-18.85792821 29.9667893 -18.85792821 29.9667893 -18.75 27.0625 C-15.78 26.7325 -12.81 26.4025 -9.75 26.0625 C-9.255 24.5775 -9.255 24.5775 -8.75 23.0625 C-9.678125 23.124375 -10.60625 23.18625 -11.5625 23.25 C-14.75 23.0625 -14.75 23.0625 -16.6875 21.875 C-17.75 20.0625 -17.75 20.0625 -17.4375 17.375 C-17.0971875 16.2303125 -17.0971875 16.2303125 -16.75 15.0625 C-15.76 14.7325 -14.77 14.4025 -13.75 14.0625 C-13.42 13.0725 -13.09 12.0825 -12.75 11.0625 C-12.09 11.0625 -11.43 11.0625 -10.75 11.0625 C-10.63914063 10.48113281 -10.52828125 9.89976563 -10.4140625 9.30078125 C-8.82122666 3.93198752 -5.6705652 0.09450942 0 0 Z M-42.75 80.0625 C-44.73 81.0525 -44.73 81.0525 -46.75 82.0625 C-46.42 83.3825 -46.09 84.7025 -45.75 86.0625 C-43.44 86.0625 -41.13 86.0625 -38.75 86.0625 C-39.08 85.4025 -39.41 84.7425 -39.75 84.0625 C-40.41 84.0625 -41.07 84.0625 -41.75 84.0625 C-42.08 82.7425 -42.41 81.4225 -42.75 80.0625 Z M-38.75 89.0625 C-38.75 92.0325 -38.75 95.0025 -38.75 98.0625 C-38.09 97.7325 -37.43 97.4025 -36.75 97.0625 C-37.08 94.4225 -37.41 91.7825 -37.75 89.0625 C-38.08 89.0625 -38.41 89.0625 -38.75 89.0625 Z " fill="#130718" transform="translate(92.75,10.9375)"/>
<path d="M0 0 C5.61 0 11.22 0 17 0 C17.33 0.99 17.66 1.98 18 3 C18.66 3 19.32 3 20 3 C20 3.99 20 4.98 20 6 C20.99 6 21.98 6 23 6 C23 9.96 23 13.92 23 18 C23.66 18 24.32 18 25 18 C25 24.6 25 31.2 25 38 C21.37 38 17.74 38 14 38 C14 35.03 14 32.06 14 29 C10.37 29 6.74 29 3 29 C3 29.66 3 30.32 3 31 C3.99 31 4.98 31 6 31 C6 33.31 6 35.62 6 38 C2.37 38 -1.26 38 -5 38 C-5.09920291 26.94438708 -5.12520495 16.01093413 -4 5 C-3.34 5 -2.68 5 -2 5 C-2 4.34 -2 3.68 -2 3 C-1.34 3 -0.68 3 0 3 C0 2.01 0 1.02 0 0 Z " fill="#4FF2F3" transform="translate(64,89)"/>
<path d="M0 0 C3.96 0 7.92 0 12 0 C12 4.29 12 8.58 12 13 C13.98 13 15.96 13 18 13 C18 8.71 18 4.42 18 0 C21.96 0 25.92 0 30 0 C30 11.55 30 23.1 30 35 C26.37 35 22.74 35 19 35 C19 31.04 19 27.08 19 23 C16.69 23 14.38 23 12 23 C12 26.96 12 30.92 12 35 C8.04 35 4.08 35 0 35 C0 23.45 0 11.9 0 0 Z " fill="#61F1F2" transform="translate(53,47)"/>
<path d="M0 0 C1.07636719 0.00322266 2.15273438 0.00644531 3.26171875 0.00976562 C4.38964844 0.01814453 5.51757812 0.02652344 6.6796875 0.03515625 C7.81535156 0.03966797 8.95101562 0.04417969 10.12109375 0.04882812 C12.93234388 0.0606401 15.7434898 0.07711118 18.5546875 0.09765625 C18.5546875 3.39765625 18.5546875 6.69765625 18.5546875 10.09765625 C12.6146875 10.09765625 6.6746875 10.09765625 0.5546875 10.09765625 C0.5546875 10.75765625 0.5546875 11.41765625 0.5546875 12.09765625 C6.4946875 12.09765625 12.4346875 12.09765625 18.5546875 12.09765625 C18.5546875 12.42765625 18.5546875 12.75765625 18.5546875 13.09765625 C12.6146875 13.09765625 6.6746875 13.09765625 0.5546875 13.09765625 C0.5546875 17.05765625 0.5546875 21.01765625 0.5546875 25.09765625 C6.4946875 25.09765625 12.4346875 25.09765625 18.5546875 25.09765625 C18.5546875 28.39765625 18.5546875 31.69765625 18.5546875 35.09765625 C10.3046875 35.09765625 2.0546875 35.09765625 -6.4453125 35.09765625 C-6.4453125 34.10765625 -6.4453125 33.11765625 -6.4453125 32.09765625 C-8.0953125 32.09765625 -9.7453125 32.09765625 -11.4453125 32.09765625 C-11.4453125 24.17765625 -11.4453125 16.25765625 -11.4453125 8.09765625 C-10.1253125 8.09765625 -8.8053125 8.09765625 -7.4453125 8.09765625 C-7.4453125 5.78765625 -7.4453125 3.47765625 -7.4453125 1.09765625 C-4.83580014 -0.20709993 -2.91829965 -0.01535947 0 0 Z " fill="#2DB3C8" transform="translate(32.4453125,46.90234375)"/>
<path d="M0 0 C4.29 0 8.58 0 13 0 C13 9.57 13 19.14 13 29 C17.62 29 22.24 29 27 29 C27 31.97 27 34.94 27 38 C18.75 38 10.5 38 2 38 C2 38.66 2 39.32 2 40 C10.25 40 18.5 40 27 40 C27 40.66 27 41.32 27 42 C18.09 42 9.18 42 0 42 C0 28.14 0 14.28 0 0 Z " fill="#36BFCF" transform="translate(29,89)"/>
<path d="M0 0 C2 2 2 2 2.13525391 4.52197266 C2.08288574 5.5588623 2.03051758 6.59575195 1.9765625 7.6640625 C1.925 8.78554688 1.8734375 9.90703125 1.8203125 11.0625 C1.75585938 12.238125 1.69140625 13.41375 1.625 14.625 C1.56828125 15.80835938 1.5115625 16.99171875 1.453125 18.2109375 C1.31134354 21.14108774 1.15685548 24.07061802 1 27 C5.95 27 10.9 27 16 27 C16 30.3 16 33.6 16 37 C7.09 37 -1.82 37 -11 37 C-11 25.45 -11 13.9 -11 2 C-7.37 2 -3.74 2 0 2 C0 1.34 0 0.68 0 0 Z " fill="#1DC5DA" transform="translate(142,45)"/>
<path d="M0 0 C3.96 0 7.92 0 12 0 C12 8.25 12 16.5 12 25 C16.62 25 21.24 25 26 25 C26 28.3 26 31.6 26 35 C17.42 35 8.84 35 0 35 C0 23.45 0 11.9 0 0 Z " fill="#1DADCC" transform="translate(102,47)"/>
<path d="M0 0 C0.33 0 0.66 0 1 0 C1 6.93 1 13.86 1 21 C9.91 21 18.82 21 28 21 C28.33 14.4 28.66 7.8 29 1 C25.7 1 22.4 1 19 1 C19 4.96 19 8.92 19 13 C18.67 13 18.34 13 18 13 C18 8.71 18 4.42 18 0 C21.96 0 25.92 0 30 0 C30 11.55 30 23.1 30 35 C26.37 35 22.74 35 19 35 C19 31.04 19 27.08 19 23 C16.69 23 14.38 23 12 23 C12 26.96 12 30.92 12 35 C8.04 35 4.08 35 0 35 C0 23.45 0 11.9 0 0 Z " fill="#30AECB" transform="translate(53,47)"/>
<path d="M0 0 C1.97909398 -0.02686553 3.95828971 -0.04633375 5.9375 -0.0625 C7.03964844 -0.07410156 8.14179688 -0.08570312 9.27734375 -0.09765625 C12 0 12 0 13 1 C13.08758003 2.99964982 13.10696576 5.0023611 13.09765625 7.00390625 C13.09443359 8.21884766 13.09121094 9.43378906 13.08789062 10.68554688 C13.07951172 11.96494141 13.07113281 13.24433594 13.0625 14.5625 C13.05798828 15.84576172 13.05347656 17.12902344 13.04882812 18.45117188 C13.03699555 21.6341342 13.01905944 24.81707274 13 28 C6.4 28 -0.2 28 -7 28 C-7 25.03 -7 22.06 -7 19 C-3.7 19 -0.4 19 3 19 C3 15.04 3 11.08 3 7 C2.01 7 1.02 7 0 7 C0 4.69 0 2.38 0 0 Z " fill="#0DA7D1" transform="translate(144,98)"/>
<path d="M0 0 C1.00023193 0.00523682 2.00046387 0.01047363 3.03100586 0.01586914 C4.1105957 0.0190918 5.19018555 0.02231445 6.30249023 0.02563477 C8.00695312 0.03820313 8.00695312 0.03820313 9.74584961 0.05102539 C11.45611328 0.05779297 11.45611328 0.05779297 13.20092773 0.06469727 C16.02845312 0.07652792 18.85587601 0.09301129 21.68334961 0.11352539 C21.68334961 3.41352539 21.68334961 6.71352539 21.68334961 10.11352539 C15.41334961 10.11352539 9.14334961 10.11352539 2.68334961 10.11352539 C2.68334961 14.07352539 2.68334961 18.03352539 2.68334961 22.11352539 C-0.61665039 21.78352539 -3.91665039 21.45352539 -7.31665039 21.11352539 C-7.31665039 17.15352539 -7.31665039 13.19352539 -7.31665039 9.11352539 C-5.99665039 9.11352539 -4.67665039 9.11352539 -3.31665039 9.11352539 C-3.33727539 7.81415039 -3.35790039 6.51477539 -3.37915039 5.17602539 C-3.40064494 3.82186906 -3.38813238 2.46596456 -3.31665039 1.11352539 C-2.31665039 0.11352539 -2.31665039 0.11352539 0 0 Z " fill="#50F2F4" transform="translate(29.316650390625,46.886474609375)"/>
<path d="M0 0 C0.886875 0.09796875 1.77375 0.1959375 2.6875 0.296875 C3.574375 0.38453125 4.46125 0.4721875 5.375 0.5625 C7.6875 1.046875 7.6875 1.046875 9.6875 3.046875 C9.8125 6.671875 9.8125 6.671875 9.6875 10.046875 C11.0075 10.046875 12.3275 10.046875 13.6875 10.046875 C13.6875 10.706875 13.6875 11.366875 13.6875 12.046875 C14.3475 12.046875 15.0075 12.046875 15.6875 12.046875 C16.0175 14.026875 16.3475 16.006875 16.6875 18.046875 C13.62446422 18.12803493 10.56359185 18.18744909 7.5 18.234375 C6.63568359 18.25951172 5.77136719 18.28464844 4.88085938 18.31054688 C-0.21512807 18.36912144 -2.99594096 17.96690023 -7.3125 15.046875 C-11.07065858 15.75072899 -11.07065858 15.75072899 -14.3125 17.046875 C-14.3125 16.056875 -14.3125 15.066875 -14.3125 14.046875 C-13.6525 14.046875 -12.9925 14.046875 -12.3125 14.046875 C-11.9825 12.726875 -11.6525 11.406875 -11.3125 10.046875 C-10.3225 10.046875 -9.3325 10.046875 -8.3125 10.046875 C-8.3125 8.726875 -8.3125 7.406875 -8.3125 6.046875 C-7.6525 6.046875 -6.9925 6.046875 -6.3125 6.046875 C-5.879375 5.11875 -5.879375 5.11875 -5.4375 4.171875 C-3.2638861 0.06615985 -3.2638861 0.06615985 0 0 Z " fill="#05703D" transform="translate(92.3125,12.953125)"/>
<path d="M0 0 C0.66 0.33 1.32 0.66 2 1 C2 8.26 2 15.52 2 23 C5.63 23 9.26 23 13 23 C15.69921875 24.640625 15.69921875 24.640625 17 27 C17.14453125 29.734375 17.14453125 29.734375 16.8125 32.75 C16.60030657 37.70926368 17.12510362 39.94696922 20.5 43.625 C21.47453125 44.54152344 21.47453125 44.54152344 22.46875 45.4765625 C23.22671875 46.23066406 23.22671875 46.23066406 24 47 C24 47.66 24 48.32 24 49 C25.32 49.66 26.64 50.32 28 51 C28 59.58 28 68.16 28 77 C27.01 76.505 27.01 76.505 26 76 C26 67.75 26 59.5 26 51 C25.01 51 24.02 51 23 51 C23 50.34 23 49.68 23 49 C22.01 49 21.02 49 20 49 C20 48.34 20 47.68 20 47 C19.01 47 18.02 47 17 47 C17 45.68 17 44.36 17 43 C16.27409668 43.00523682 15.54819336 43.01047363 14.80029297 43.01586914 C11.49187088 43.03673497 8.18346269 43.04969069 4.875 43.0625 C3.16183594 43.07506836 3.16183594 43.07506836 1.4140625 43.08789062 C0.30546875 43.09111328 -0.803125 43.09433594 -1.9453125 43.09765625 C-3.46922607 43.10551147 -3.46922607 43.10551147 -5.02392578 43.11352539 C-8.09114726 42.99652309 -10.98633134 42.56776417 -14 42 C-14 41.67 -14 41.34 -14 41 C-4.76 41 4.48 41 14 41 C14 39.68 14 38.36 14 37 C5.09 37 -3.82 37 -13 37 C-13 36.67 -13 36.34 -13 36 C-4.09 36 4.82 36 14 36 C14 32.7 14 29.4 14 26 C9.05 26 4.1 26 -1 26 C-1.0268245 21.85412418 -1.04675315 17.70841962 -1.0625 13.5625 C-1.07087891 12.37849609 -1.07925781 11.19449219 -1.08789062 9.97460938 C-1.09111328 8.84990234 -1.09433594 7.72519531 -1.09765625 6.56640625 C-1.10551147 5.00321655 -1.10551147 5.00321655 -1.11352539 3.40844727 C-1 1 -1 1 0 0 Z " fill="#0C0B16" transform="translate(144,46)"/>
<path d="M0 0 C1.21236328 0.04060547 1.21236328 0.04060547 2.44921875 0.08203125 C3.06410156 0.11683594 3.67898437 0.15164062 4.3125 0.1875 C4.6425 1.1775 4.9725 2.1675 5.3125 3.1875 C1.6825 3.1875 -1.9475 3.1875 -5.6875 3.1875 C-5.6875 14.7375 -5.6875 26.2875 -5.6875 38.1875 C-6.6775 38.1875 -7.6675 38.1875 -8.6875 38.1875 C-8.6875 34.8875 -8.6875 31.5875 -8.6875 28.1875 C-13.3075 28.1875 -17.9275 28.1875 -22.6875 28.1875 C-22.6875 19.6075 -22.6875 11.0275 -22.6875 2.1875 C-19.6875 4.1875 -19.6875 4.1875 -19.17578125 6.65625 C-19.11777344 7.6565625 -19.05976562 8.656875 -19 9.6875 C-18.93554688 10.75484375 -18.87109375 11.8221875 -18.8046875 12.921875 C-18.64588139 17.34727193 -18.59934658 21.76023927 -18.6875 26.1875 C-16.7075 26.1875 -14.7275 26.1875 -12.6875 26.1875 C-12.74550781 25.1975 -12.80351563 24.2075 -12.86328125 23.1875 C-13.18143402 15.40605451 -13.21351395 9.22719976 -7.6875 3.1875 C-7.23375 2.62933594 -6.78 2.07117187 -6.3125 1.49609375 C-4.12770908 -0.26329317 -2.76539214 -0.12023444 0 0 Z " fill="#0B020E" transform="translate(136.6875,43.8125)"/>
<path d="M0 0 C3.63 0 7.26 0 11 0 C11 8.91 11 17.82 11 27 C7.37 26.67 3.74 26.34 0 26 C0 17.42 0 8.84 0 0 Z " fill="#5FF3F4" transform="translate(30,90)"/>
<path d="M0 0 C3.63 0 7.26 0 11 0 C11 8.58 11 17.16 11 26 C7.37 26 3.74 26 0 26 C0 17.42 0 8.84 0 0 Z " fill="#08A8CF" transform="translate(87,56)"/>
<path d="M0 0 C5.61 0 11.22 0 17 0 C17 0.66 17 1.32 17 2 C17.99 2 18.98 2 20 2 C20.33 1.34 20.66 0.68 21 0 C23.31 0 25.62 0 28 0 C28 0.66 28 1.32 28 2 C29.65 2 31.3 2 33 2 C33 3.32 33 4.64 33 6 C30.69 6.33 28.38 6.66 26 7 C26.33 5.35 26.66 3.7 27 2 C26.01 2.495 26.01 2.495 25 3 C25 4.32 25 5.64 25 7 C24.34 7 23.68 7 23 7 C23 7.66 23 8.32 23 9 C19.04 9 15.08 9 11 9 C11 8.34 11 7.68 11 7 C10.34 7 9.68 7 9 7 C9 7.66 9 8.32 9 9 C8.34 9 7.68 9 7 9 C6.67 9.66 6.34 10.32 6 11 C5.34 11 4.68 11 4 11 C4 11.66 4 12.32 4 13 C3.01 13 2.02 13 1 13 C0.34 14.65 -0.32 16.3 -1 18 C-1.33 18 -1.66 18 -2 18 C-2 12.72 -2 7.44 -2 2 C-1.34 2 -0.68 2 0 2 C0 1.34 0 0.68 0 0 Z " fill="#462C4F" transform="translate(89,138)"/>
<path d="M0 0 C0.33 0 0.66 0 1 0 C1.33 2.64 1.66 5.28 2 8 C2.99 7.67 3.98 7.34 5 7 C5 7.66 5 8.32 5 9 C5.68626465 8.99476318 6.3725293 8.98952637 7.07958984 8.98413086 C10.17805064 8.96339044 13.27649686 8.95034924 16.375 8.9375 C17.45523438 8.92912109 18.53546875 8.92074219 19.6484375 8.91210938 C21.1953125 8.90727539 21.1953125 8.90727539 22.7734375 8.90234375 C23.72653809 8.89710693 24.67963867 8.89187012 25.66162109 8.88647461 C28 9 28 9 30 10 C30 13.3 30 16.6 30 20 C26.37 20 22.74 20 19 20 C19 17.03 19 14.06 19 11 C15.37 11 11.74 11 8 11 C8 11.66 8 12.32 8 13 C8.99 13 9.98 13 11 13 C11 15.31 11 17.62 11 20 C7.37 20 3.74 20 0 20 C0 13.4 0 6.8 0 0 Z " fill="#1CDCED" transform="translate(59,107)"/>
<path d="M0 0 C8.25 0 16.5 0 25 0 C25 0.33 25 0.66 25 1 C17.41 1 9.82 1 2 1 C2 1.99 2 2.98 2 4 C7.94 4 13.88 4 20 4 C19.67 4.99 19.34 5.98 19 7 C15.37 7 11.74 7 8 7 C8 9.64 8 12.28 8 15 C8.99 15 9.98 15 11 15 C11 18.96 11 22.92 11 27 C7.37 26.67 3.74 26.34 0 26 C0 17.42 0 8.84 0 0 Z " fill="#5CF4F6" transform="translate(136,90)"/>
<path d="M0 0 C2 2 2 2 2.13525391 4.52197266 C2.08288574 5.5588623 2.03051758 6.59575195 1.9765625 7.6640625 C1.925 8.78554688 1.8734375 9.90703125 1.8203125 11.0625 C1.75585938 12.238125 1.69140625 13.41375 1.625 14.625 C1.56828125 15.80835938 1.5115625 16.99171875 1.453125 18.2109375 C1.31133757 21.14121112 1.15989667 24.07066772 1 27 C0.34 27 -0.32 27 -1 27 C-1 25.68 -1 24.36 -1 23 C-3.97 23 -6.94 23 -10 23 C-10 16.07 -10 9.14 -10 2 C-6.7 2 -3.4 2 0 2 C0 1.34 0 0.68 0 0 Z " fill="#4AF0F2" transform="translate(142,45)"/>
<path d="M0 0 C5.61 0 11.22 0 17 0 C17 0.66 17 1.32 17 2 C17.66 2 18.32 2 19 2 C19 2.99 19 3.98 19 5 C19.99 5 20.98 5 22 5 C22 8.96 22 12.92 22 17 C22.66 17.33 23.32 17.66 24 18 C20.04 18.495 20.04 18.495 16 19 C16 18.34 16 17.68 16 17 C16.99 17 17.98 17 19 17 C19 13.7 19 10.4 19 7 C17.35 7 15.7 7 14 7 C14 12.28 14 17.56 14 23 C10.7 23 7.4 23 4 23 C4 17.72 4 12.44 4 7 C4.66 7.33 5.32 7.66 6 8 C6 12.29 6 16.58 6 21 C7.98 21 9.96 21 12 21 C12 16.38 12 11.76 12 7 C8.7 6.67 5.4 6.34 2 6 C1.34 4.02 0.68 2.04 0 0 Z " fill="#56EAEA" transform="translate(65,90)"/>
<path d="M0 0 C3.63 0 7.26 0 11 0 C11 7.26 11 14.52 11 22 C7.37 22 3.74 22 0 22 C0 14.74 0 7.48 0 0 Z " fill="#52EEF4" transform="translate(103,47)"/>
<path d="M0 0 C2.31 0 4.62 0 7 0 C7.33 3.96 7.66 7.92 8 12 C11.3 12.33 14.6 12.66 18 13 C18 14.32 18 15.64 18 17 C7.88962219 17.73019395 -1.89913869 18.28736468 -12 17 C-12 15.35 -12 13.7 -12 12 C-8.04 12 -4.08 12 0 12 C0 8.04 0 4.08 0 0 Z " fill="#17061D" transform="translate(65,70)"/>
<path d="M0 0 C0.19397476 1.97854258 0.38001321 3.9578648 0.5625 5.9375 C0.66691406 7.03964844 0.77132812 8.14179687 0.87890625 9.27734375 C0.91886719 10.17582031 0.95882812 11.07429688 1 12 C0 13 0 13 -1.85766602 13.11352539 C-2.64842529 13.10828857 -3.43918457 13.10305176 -4.25390625 13.09765625 C-5.10791016 13.09443359 -5.96191406 13.09121094 -6.84179688 13.08789062 C-7.73962891 13.07951172 -8.63746094 13.07113281 -9.5625 13.0625 C-10.46419922 13.05798828 -11.36589844 13.05347656 -12.29492188 13.04882812 C-14.52997589 13.03700244 -16.76499602 13.01906638 -19 13 C-19 9.04 -19 5.08 -19 1 C-16.02085163 0.83300069 -13.04168271 0.66638454 -10.0625 0.5 C-8.78729492 0.42845703 -8.78729492 0.42845703 -7.48632812 0.35546875 C-6.67744141 0.31035156 -5.86855469 0.26523437 -5.03515625 0.21875 C-4.2862915 0.17685547 -3.53742676 0.13496094 -2.76586914 0.09179688 C-1.84464901 0.0439082 -0.92246402 0 0 0 Z " fill="#1E0D24" transform="translate(52,59)"/>
<path d="M0 0 C0.33 0.66 0.66 1.32 1 2 C1.99 2 2.98 2 4 2 C4 5.63 4 9.26 4 13 C2.35 13 0.7 13 -1 13 C-0.01 13.33 0.98 13.66 2 14 C2 18.62 2 23.24 2 28 C1.34 28 0.68 28 0 28 C0 25.36 0 22.72 0 20 C-0.66 20 -1.32 20 -2 20 C-2.33 20.66 -2.66 21.32 -3 22 C-5.64 21.67 -8.28 21.34 -11 21 C-11 18.69 -11 16.38 -11 14 C-10.34 14 -9.68 14 -9 14 C-9 13.34 -9 12.68 -9 12 C-9.66 11.67 -10.32 11.34 -11 11 C-9.02 11 -7.04 11 -5 11 C-5 8.36 -5 5.72 -5 3 C-3.35 2.67 -1.7 2.34 0 2 C0 1.34 0 0.68 0 0 Z " fill="#262F43" transform="translate(19,108)"/>
<path d="M0 0 C0.66 0 1.32 0 2 0 C2 1.98 2 3.96 2 6 C2.66 6 3.32 6 4 6 C4 5.34 4 4.68 4 4 C6.29160319 3.97307516 8.58329546 3.95363876 10.875 3.9375 C12.15117188 3.92589844 13.42734375 3.91429688 14.7421875 3.90234375 C18 4 18 4 20 5 C20 8.3 20 11.6 20 15 C17.52076199 15.02685095 15.0418116 15.04676547 12.5625 15.0625 C11.85544922 15.07087891 11.14839844 15.07925781 10.41992188 15.08789062 C8.61306441 15.09653588 6.80612397 15.05220011 5 15 C4 14 4 14 3.9375 10.9375 C3.958125 9.968125 3.97875 8.99875 4 8 C2.68 8 1.36 8 0 8 C0 5.36 0 2.72 0 0 Z " fill="#12B0D3" transform="translate(111,112)"/>
<path d="M0 0 C2.97 0 5.94 0 9 0 C9.02710123 2.5625718 9.04688771 5.12485365 9.0625 7.6875 C9.07087891 8.40873047 9.07925781 9.12996094 9.08789062 9.87304688 C9.10543632 13.71555382 8.93524221 17.26639526 8 21 C5.36 21 2.72 21 0 21 C0 14.07 0 7.14 0 0 Z " fill="#93F6F9" transform="translate(90,33)"/>
<path d="M0 0 C2.97 0 5.94 0 9 0 C9 0.99 9 1.98 9 3 C13.95 3 18.9 3 24 3 C24 4.98 24 6.96 24 9 C16.08 9 8.16 9 0 9 C0 6.03 0 3.06 0 0 Z " fill="#0CA9D1" transform="translate(31,117)"/>
<path d="M0 0 C0.66 0 1.32 0 2 0 C1.34 1.65 0.68 3.3 0 5 C-2.64 5 -5.28 5 -8 5 C-8 5.66 -8 6.32 -8 7 C-5.36 7 -2.72 7 0 7 C2 13.75 2 13.75 2 16 C-1.96 16 -5.92 16 -10 16 C-10 26.23 -10 36.46 -10 47 C-10.33 47 -10.66 47 -11 47 C-11.495 29.675 -11.495 29.675 -12 12 C-11.34 12 -10.68 12 -10 12 C-10.020625 10.700625 -10.04125 9.40125 -10.0625 8.0625 C-10.08399454 6.70834367 -10.07148199 5.35243917 -10 4 C-9 3 -9 3 -7.15234375 2.90234375 C-5.1015625 2.93489583 -3.05078125 2.96744792 -1 3 C-0.67 2.01 -0.34 1.02 0 0 Z " fill="#120816" transform="translate(112,31)"/>
<path d="M0 0 C2.31 0 4.62 0 7 0 C7 1.32 7 2.64 7 4 C12.94 4 18.88 4 25 4 C25 5.98 25 7.96 25 10 C18.07 10 11.14 10 4 10 C4 8.68 4 7.36 4 6 C2.68 6 1.36 6 0 6 C0 4.02 0 2.04 0 0 Z " fill="#0BA7D0" transform="translate(24,70)"/>
<path d="M0 0 C2.31 0 4.62 0 7 0 C7 1.65 7 3.3 7 5 C11.62 5 16.24 5 21 5 C21 6.98 21 8.96 21 11 C14.07 11 7.14 11 0 11 C0 7.37 0 3.74 0 0 Z " fill="#0BA6D0" transform="translate(105,69)"/>
<path d="M0 0 C0.33 0 0.66 0 1 0 C1.18451025 16.70842825 1.18451025 16.70842825 0 25 C3.3 25 6.6 25 10 25 C10 25.33 10 25.66 10 26 C7.03 26 4.06 26 1 26 C1 28.97 1 31.94 1 35 C7.6 35 14.2 35 21 35 C21 32.03 21 29.06 21 26 C24.3 26 27.6 26 31 26 C30.67 27.65 30.34 29.3 30 31 C30.33 30.67 30.66 30.34 31 30 C31.495 31.485 31.495 31.485 32 33 C30.35 33 28.7 33 27 33 C27 33.66 27 34.32 27 35 C23.72373625 35.9821994 20.77211881 36.11580914 17.359375 36.09765625 C16.28945312 36.09443359 15.21953125 36.09121094 14.1171875 36.08789062 C13.00601563 36.07951172 11.89484375 36.07113281 10.75 36.0625 C9.06003906 36.05573242 9.06003906 36.05573242 7.3359375 36.04882812 C4.55723783 36.03705397 1.77864591 36.0206084 -1 36 C-1.11317227 23.94976471 -1.03330247 12.01214121 0 0 Z " fill="#26DDEE" transform="translate(136,91)"/>
<path d="M0 0 C2.64 0 5.28 0 8 0 C8 0.99 8 1.98 8 3 C7.34 3 6.68 3 6 3 C6 3.66 6 4.32 6 5 C5.01 5 4.02 5 3 5 C3 5.99 3 6.98 3 8 C6.27773504 7.24849977 6.27773504 7.24849977 8 4 C10.62697064 3.77862607 13.00893964 3.71837975 15.625 3.8125 C16.33140625 3.82603516 17.0378125 3.83957031 17.765625 3.85351562 C19.51074128 3.8888896 21.25546608 3.94269779 23 4 C23 5.98 23 7.96 23 10 C15.41 10 7.82 10 0 10 C0 6.7 0 3.4 0 0 Z " fill="#0BA6CF" transform="translate(133,70)"/>
<path d="M0 0 C3.3 0 6.6 0 10 0 C10 6.27 10 12.54 10 19 C7.69 19 5.38 19 3 19 C3 14.71 3 10.42 3 6 C2.01 6 1.02 6 0 6 C0 4.02 0 2.04 0 0 Z " fill="#1B0A20" transform="translate(145,99)"/>
<path d="M0 0 C3.25 1.0625 3.25 1.0625 5.25 3.0625 C4.0125 2.959375 2.775 2.85625 1.5 2.75 C-0.69153035 2.66820179 -0.69153035 2.66820179 -2.75 3.0625 C-5.15406384 5.44092577 -5.15406384 5.44092577 -6.75 8.0625 C-7.41 8.0625 -8.07 8.0625 -8.75 8.0625 C-8.75 9.3825 -8.75 10.7025 -8.75 12.0625 C-9.74 12.0625 -10.73 12.0625 -11.75 12.0625 C-12.08 13.3825 -12.41 14.7025 -12.75 16.0625 C-13.41 16.0625 -14.07 16.0625 -14.75 16.0625 C-14.75 17.0525 -14.75 18.0425 -14.75 19.0625 C-10.79 17.5775 -10.79 17.5775 -6.75 16.0625 C-6.42 16.7225 -6.09 17.3825 -5.75 18.0625 C-2.61276108 19.10824631 -0.46961247 19.13242517 2.8125 19.0625 C8.02834395 18.95167197 8.02834395 18.95167197 10.25 20.0625 C10.58 19.4025 10.91 18.7425 11.25 18.0625 C11.25 18.7225 11.25 19.3825 11.25 20.0625 C12.24 20.3925 13.23 20.7225 14.25 21.0625 C7.76650193 22.24385474 1.38785493 22.17572974 -5.1875 22.125 C-6.30060547 22.12048828 -7.41371094 22.11597656 -8.56054688 22.11132812 C-11.29042101 22.09961193 -14.02018174 22.08320699 -16.75 22.0625 C-17.375 19.75 -17.375 19.75 -17.75 17.0625 C-16.76 15.5775 -16.76 15.5775 -15.75 14.0625 C-15.09 14.0625 -14.43 14.0625 -13.75 14.0625 C-13.42 13.0725 -13.09 12.0825 -12.75 11.0625 C-12.09 11.0625 -11.43 11.0625 -10.75 11.0625 C-10.58371094 10.19044922 -10.58371094 10.19044922 -10.4140625 9.30078125 C-8.82122666 3.93198752 -5.6705652 0.09450942 0 0 Z " fill="#102123" transform="translate(92.75,10.9375)"/>
<path d="M0 0 C3.63 0 7.26 0 11 0 C11 3.96 11 7.92 11 12 C7.37 12.33 3.74 12.66 0 13 C0 8.71 0 4.42 0 0 Z " fill="#59F0F4" transform="translate(87,56)"/>
<path d="M0 0 C0.33 0 0.66 0 1 0 C1 11.22 1 22.44 1 34 C1.66 34 2.32 34 3 34 C3 30.37 3 26.74 3 23 C9.75 22.875 9.75 22.875 12 24 C12 27.63 12 31.26 12 35 C8.04 35 4.08 35 0 35 C0 23.45 0 11.9 0 0 Z " fill="#169CBE" transform="translate(53,47)"/>
<path d="M0 0 C3.3 0 6.6 0 10 0 C10.125 6.75 10.125 6.75 9 9 C8.34 9 7.68 9 7 9 C6.67 9.66 6.34 10.32 6 11 C5.34 11 4.68 11 4 11 C4 11.66 4 12.32 4 13 C3.01 13 2.02 13 1 13 C0.34 14.65 -0.32 16.3 -1 18 C-1.33 18 -1.66 18 -2 18 C-2 12.72 -2 7.44 -2 2 C-1.34 2 -0.68 2 0 2 C0 1.34 0 0.68 0 0 Z " fill="#523D5F" transform="translate(89,138)"/>
<path d="M0 0 C0.886875 0.09796875 1.77375 0.1959375 2.6875 0.296875 C3.574375 0.38453125 4.46125 0.4721875 5.375 0.5625 C7.6875 1.046875 7.6875 1.046875 9.6875 3.046875 C9.8125 5.671875 9.8125 5.671875 9.6875 8.046875 C6.7175 8.046875 3.7475 8.046875 0.6875 8.046875 C0.6875 8.706875 0.6875 9.366875 0.6875 10.046875 C-2.2825 10.046875 -5.2525 10.046875 -8.3125 10.046875 C-8.3125 8.726875 -8.3125 7.406875 -8.3125 6.046875 C-7.6525 6.046875 -6.9925 6.046875 -6.3125 6.046875 C-6.02375 5.428125 -5.735 4.809375 -5.4375 4.171875 C-3.2638861 0.06615985 -3.2638861 0.06615985 0 0 Z " fill="#999CA4" transform="translate(92.3125,12.953125)"/>
<path d="M0 0 C4.47920597 -0.02682159 8.95825351 -0.04675177 13.4375 -0.0625 C14.71689453 -0.07087891 15.99628906 -0.07925781 17.31445312 -0.08789062 C19.13686523 -0.09272461 19.13686523 -0.09272461 20.99609375 -0.09765625 C22.12200928 -0.10289307 23.2479248 -0.10812988 24.40795898 -0.11352539 C27 0 27 0 28 1 C28.07244053 3.01964199 28.08377188 5.04167124 28.0625 7.0625 C28.05347656 8.16722656 28.04445313 9.27195312 28.03515625 10.41015625 C28.02355469 11.26480469 28.01195313 12.11945313 28 13 C27.67 13 27.34 13 27 13 C27 9.7 27 6.4 27 3 C24.69 3 22.38 3 20 3 C20 6.3 20 9.6 20 13 C19.34 13 18.68 13 18 13 C18 9.37 18 5.74 18 2 C15.69 2.33 13.38 2.66 11 3 C10.67 6.3 10.34 9.6 10 13 C9.67 13 9.34 13 9 13 C9 9.37 9 5.74 9 2 C6.69 2 4.38 2 2 2 C2 5.63 2 9.26 2 13 C1.34 13 0.68 13 0 13 C0 8.71 0 4.42 0 0 Z " fill="#14D7EB" transform="translate(54,68)"/>
<path d="M0 0 C1.21236328 0.04060547 1.21236328 0.04060547 2.44921875 0.08203125 C3.06410156 0.11683594 3.67898437 0.15164062 4.3125 0.1875 C4.6425 1.1775 4.9725 2.1675 5.3125 3.1875 C1.6825 3.1875 -1.9475 3.1875 -5.6875 3.1875 C-5.6875 14.7375 -5.6875 26.2875 -5.6875 38.1875 C-6.6775 38.1875 -7.6675 38.1875 -8.6875 38.1875 C-8.6875 34.8875 -8.6875 31.5875 -8.6875 28.1875 C-13.3075 28.1875 -17.9275 28.1875 -22.6875 28.1875 C-22.6875 27.8575 -22.6875 27.5275 -22.6875 27.1875 C-16.2525 26.6925 -16.2525 26.6925 -9.6875 26.1875 C-10.0175 24.2075 -10.3475 22.2275 -10.6875 20.1875 C-10.25 17.8125 -10.25 17.8125 -9.6875 16.1875 C-9.0275 16.1875 -8.3675 16.1875 -7.6875 16.1875 C-7.72230469 15.28386719 -7.75710937 14.38023438 -7.79296875 13.44921875 C-7.82003906 12.26972656 -7.84710938 11.09023438 -7.875 9.875 C-7.92720703 8.11736328 -7.92720703 8.11736328 -7.98046875 6.32421875 C-7.6875 3.1875 -7.6875 3.1875 -6.46875 1.28125 C-4.16695158 -0.132135 -2.68182631 -0.11660114 0 0 Z " fill="#141C32" transform="translate(136.6875,43.8125)"/>
<path d="M0 0 C0.33 0 0.66 0 1 0 C1.33 7.59 1.66 15.18 2 23 C9.59 23 17.18 23 25 23 C25 24.32 25 25.64 25 27 C16.75 27 8.5 27 0 27 C0 18.09 0 9.18 0 0 Z " fill="#3F4169" transform="translate(134,106)"/>
<path d="M0 0 C2.97 0.495 2.97 0.495 6 1 C6 1.66 6 2.32 6 3 C14.25 3 22.5 3 31 3 C31 4.32 31 5.64 31 7 C22.09 7 13.18 7 4 7 C4 5.35 4 3.7 4 2 C2.68 2 1.36 2 0 2 C0 1.34 0 0.68 0 0 Z " fill="#43436C" transform="translate(20,80)"/>
<path d="M0 0 C13.86 0.495 13.86 0.495 28 1 C28 2.32 28 3.64 28 5 C18.76 5 9.52 5 0 5 C0 3.35 0 1.7 0 0 Z " fill="#414371" transform="translate(130,82)"/>
<path d="M0 0 C5.28 0 10.56 0 16 0 C16 2.31 16 4.62 16 7 C10.72 7 5.44 7 0 7 C0 4.69 0 2.38 0 0 Z " fill="#4BEFF1" transform="translate(33,49)"/>
<path d="M0 0 C0.99 0.33 1.98 0.66 3 1 C3 5.29 3 9.58 3 14 C0.69 14.33 -1.62 14.66 -4 15 C-4 14.34 -4 13.68 -4 13 C-6.31 13 -8.62 13 -11 13 C-11 11.35 -11 9.7 -11 8 C-7.7 8 -4.4 8 -1 8 C-1.020625 6.865625 -1.04125 5.73125 -1.0625 4.5625 C-1 1 -1 1 0 0 Z " fill="#1E182F" transform="translate(87,32)"/>
<path d="M0 0 C3.63 0 7.26 0 11 0 C11 2.97 11 5.94 11 9 C14.63 9 18.26 9 22 9 C22 10.98 22 12.96 22 15 C18.04 15 14.08 15 10 15 C10 11.04 10 7.08 10 3 C8.906875 3.020625 7.81375 3.04125 6.6875 3.0625 C3 3 3 3 0 2 C0 1.34 0 0.68 0 0 Z " fill="#3A3E5E" transform="translate(67,118)"/>
<path d="M0 0 C12.87 0.495 12.87 0.495 26 1 C26 2.32 26 3.64 26 5 C17.42 5 8.84 5 0 5 C0 3.35 0 1.7 0 0 Z " fill="#444A71" transform="translate(102,82)"/>
<path d="M0 0 C0.66 0.33 1.32 0.66 2 1 C2 1.66 2 2.32 2 3 C2.8353125 3.3403125 2.8353125 3.3403125 3.6875 3.6875 C6.71572375 5.40622159 8.77323664 7.32788397 11 10 C10.85817944 12.48185976 10.10376548 13.79246904 9 16 C6.35139573 16.59355614 3.70802678 16.74209269 1 17 C0.67 19.64 0.34 22.28 0 25 C-0.66 25 -1.32 25 -2 25 C-2 26.65 -2 28.3 -2 30 C-2.33 30 -2.66 30 -3 30 C-3.02685095 27.52076199 -3.04676547 25.0418116 -3.0625 22.5625 C-3.07506836 21.50192383 -3.07506836 21.50192383 -3.08789062 20.41992188 C-3.09653588 18.61306441 -3.05220011 16.80612397 -3 15 C-2 14 -2 14 1.5625 13.9375 C2.696875 13.958125 3.83125 13.97875 5 14 C5.33 11.69 5.66 9.38 6 7 C5.34 7 4.68 7 4 7 C4 6.34 4 5.68 4 5 C2.68 5 1.36 5 0 5 C0 3.35 0 1.7 0 0 Z " fill="#2E4243" transform="translate(102,18)"/>
<path d="M0 0 C0.33 0.66 0.66 1.32 1 2 C1.99 2 2.98 2 4 2 C4 5.63 4 9.26 4 13 C1.03 13 -1.94 13 -5 13 C-5 9.7 -5 6.4 -5 3 C-3.35 2.67 -1.7 2.34 0 2 C0 1.34 0 0.68 0 0 Z " fill="#643F68" transform="translate(19,108)"/>
<path d="M0 0 C1.00023193 0.00523682 2.00046387 0.01047363 3.03100586 0.01586914 C4.1105957 0.0190918 5.19018555 0.02231445 6.30249023 0.02563477 C8.00695312 0.03820313 8.00695312 0.03820313 9.74584961 0.05102539 C11.45611328 0.05779297 11.45611328 0.05779297 13.20092773 0.06469727 C16.02845312 0.07652792 18.85587601 0.09301129 21.68334961 0.11352539 C21.68334961 3.41352539 21.68334961 6.71352539 21.68334961 10.11352539 C15.41334961 10.11352539 9.14334961 10.11352539 2.68334961 10.11352539 C2.68334961 14.07352539 2.68334961 18.03352539 2.68334961 22.11352539 C2.35334961 22.11352539 2.02334961 22.11352539 1.68334961 22.11352539 C1.68334961 17.82352539 1.68334961 13.53352539 1.68334961 9.11352539 C7.62334961 9.11352539 13.56334961 9.11352539 19.68334961 9.11352539 C19.68334961 6.80352539 19.68334961 4.49352539 19.68334961 2.11352539 C13.41334961 2.11352539 7.14334961 2.11352539 0.68334961 2.11352539 C0.35334961 3.10352539 0.02334961 4.09352539 -0.31665039 5.11352539 C-0.31665039 4.12352539 -0.31665039 3.13352539 -0.31665039 2.11352539 C-1.30665039 1.78352539 -2.29665039 1.45352539 -3.31665039 1.11352539 C-2.31665039 0.11352539 -2.31665039 0.11352539 0 0 Z " fill="#9DE7E9" transform="translate(29.316650390625,46.886474609375)"/>
<path d="M0 0 C3.96 0.33 7.92 0.66 12 1 C12 6.94 12 12.88 12 19 C8.7 19 5.4 19 2 19 C2 13.72 2 8.44 2 3 C2.66 3.33 3.32 3.66 4 4 C4 8.29 4 12.58 4 17 C5.98 17 7.96 17 10 17 C10 12.38 10 7.76 10 3 C6.7 2.67 3.4 2.34 0 2 C0 1.34 0 0.68 0 0 Z " fill="#8CF6F8" transform="translate(67,94)"/>
<path d="M0 0 C0.33 0 0.66 0 1 0 C1.33 12.87 1.66 25.74 2 39 C5.63 39 9.26 39 13 39 C13 40.32 13 41.64 13 43 C8.71 43 4.42 43 0 43 C0 28.81 0 14.62 0 0 Z " fill="#325379" transform="translate(93,90)"/>
<path d="M0 0 C0.33 0 0.66 0 1 0 C1 6.6 1 13.2 1 20 C4.63 20 8.26 20 12 20 C12 21.98 12 23.96 12 26 C8.04 26 4.08 26 0 26 C0 17.42 0 8.84 0 0 Z " fill="#142E46" transform="translate(58,107)"/>
<path d="M0 0 C1.97909398 -0.02686553 3.95828971 -0.04633375 5.9375 -0.0625 C7.03964844 -0.07410156 8.14179688 -0.08570312 9.27734375 -0.09765625 C12 0 12 0 13 1 C13.08685603 2.56172745 13.10702219 4.12729344 13.09765625 5.69140625 C13.09443359 6.63564453 13.09121094 7.57988281 13.08789062 8.55273438 C13.07951172 9.54595703 13.07113281 10.53917969 13.0625 11.5625 C13.05798828 12.55958984 13.05347656 13.55667969 13.04882812 14.58398438 C13.03700023 17.05601487 13.01906415 19.52801472 13 22 C9.37 22 5.74 22 2 22 C2.33 17.05 2.66 12.1 3 7 C3.33 7 3.66 7 4 7 C4 11.29 4 15.58 4 20 C6.31 20 8.62 20 11 20 C11 13.73 11 7.46 11 1 C7.7 1 4.4 1 1 1 C1 2.98 1 4.96 1 7 C0.67 7 0.34 7 0 7 C0 4.69 0 2.38 0 0 Z " fill="#29A7BA" transform="translate(144,98)"/>
<path d="M0 0 C2 2 2 2 2.13525391 4.52197266 C2.08288574 5.5588623 2.03051758 6.59575195 1.9765625 7.6640625 C1.925 8.78554688 1.8734375 9.90703125 1.8203125 11.0625 C1.75585938 12.238125 1.69140625 13.41375 1.625 14.625 C1.56828125 15.80835938 1.5115625 16.99171875 1.453125 18.2109375 C1.31133757 21.14121112 1.15989667 24.07066772 1 27 C0.34 27 -0.32 27 -1 27 C-1 19.41 -1 11.82 -1 4 C-2.65 4 -4.3 4 -6 4 C-6.33 4.66 -6.66 5.32 -7 6 C-7 5.34 -7 4.68 -7 4 C-7.66 4 -8.32 4 -9 4 C-9 10.27 -9 16.54 -9 23 C-9.33 23 -9.66 23 -10 23 C-10 16.07 -10 9.14 -10 2 C-6.7 2 -3.4 2 0 2 C0 1.34 0 0.68 0 0 Z " fill="#A2EEEF" transform="translate(142,45)"/>
<path d="M0 0 C3.63 0 7.26 0 11 0 C11 4.29 11 8.58 11 13 C12.98 13 14.96 13 17 13 C17 13.66 17 14.32 17 15 C14.36 15 11.72 15 9 15 C9 10.71 9 6.42 9 2 C7.68 2 6.36 2 5 2 C5 5.96 5 9.92 5 14 C4.67 14 4.34 14 4 14 C4 10.04 4 6.08 4 2 C3.01 2 2.02 2 1 2 C1 8.27 1 14.54 1 21 C0.67 21 0.34 21 0 21 C0 14.07 0 7.14 0 0 Z " fill="#A9F0F4" transform="translate(54,47)"/>
<path d="M0 0 C0.66 0.66 1.32 1.32 2 2 C4.56916657 2.30599063 7.04758384 2.51087087 9.625 2.625 C10.68460938 2.68300781 10.68460938 2.68300781 11.765625 2.7421875 C13.50998524 2.83647724 15.25495691 2.91932891 17 3 C17 4.98 17 6.96 17 9 C12.71 9 8.42 9 4 9 C4 7.68 4 6.36 4 5 C2.68 5 1.36 5 0 5 C0 3.35 0 1.7 0 0 Z " fill="#3A3A5D" transform="translate(114,124)"/>
<path d="M0 0 C8.25 0 16.5 0 25 0 C25 0.33 25 0.66 25 1 C17.41 1 9.82 1 2 1 C2 1.99 2 2.98 2 4 C7.94 4 13.88 4 20 4 C19.67 4.99 19.34 5.98 19 7 C7.47835991 7.18451025 7.47835991 7.18451025 2 6 C2 9.96 2 13.92 2 18 C1.34 17.67 0.68 17.34 0 17 C0 11.39 0 5.78 0 0 Z " fill="#A7F9FA" transform="translate(136,90)"/>
<path d="M0 0 C3.63 0 7.26 0 11 0 C11 7.26 11 14.52 11 22 C10.34 22 9.68 22 9 22 C9 15.4 9 8.8 9 2 C8.34 2 7.68 2 7 2 C7 2.66 7 3.32 7 4 C5.68 4 4.36 4 3 4 C3 3.34 3 2.68 3 2 C2.34 2 1.68 2 1 2 C1 8.6 1 15.2 1 22 C0.67 22 0.34 22 0 22 C0 14.74 0 7.48 0 0 Z " fill="#9CEEF0" transform="translate(103,47)"/>
<path d="M0 0 C3.96 0 7.92 0 12 0 C12 0.99 12 1.98 12 3 C12.66 3 13.32 3 14 3 C14 4.32 14 5.64 14 7 C11.03 7 8.06 7 5 7 C5 6.34 5 5.68 5 5 C3.35 5 1.7 5 0 5 C0 3.35 0 1.7 0 0 Z " fill="#472F4D" transform="translate(62,138)"/>
<path d="M0 0 C0.33 0 0.66 0 1 0 C1.33 3.3 1.66 6.6 2 10 C2.33 10 2.66 10 3 10 C3 12.31 3 14.62 3 17 C3.66 16.67 4.32 16.34 5 16 C5 14.02 5 12.04 5 10 C5.99 10.66 6.98 11.32 8 12 C8.99 12.33 9.98 12.66 11 13 C11 15.31 11 17.62 11 20 C7.37 20 3.74 20 0 20 C0 13.4 0 6.8 0 0 Z " fill="#28C9DD" transform="translate(59,107)"/>
<path d="M0 0 C2.97 0 5.94 0 9 0 C9 2.97 9 5.94 9 9 C6.03 9 3.06 9 0 9 C0 6.03 0 3.06 0 0 Z " fill="#0CA9D2" transform="translate(96,117)"/>
<path d="M0 0 C2.31 0 4.62 0 7 0 C7 2.31 7 4.62 7 7 C2.545 7.495 2.545 7.495 -2 8 C-2 8.66 -2 9.32 -2 10 C-0.68 10 0.64 10 2 10 C2 10.66 2 11.32 2 12 C0.68 12 -0.64 12 -2 12 C-2 13.65 -2 15.3 -2 17 C-2.66 17 -3.32 17 -4 17 C-4 13.7 -4 10.4 -4 7 C-2.68 7 -1.36 7 0 7 C0 4.69 0 2.38 0 0 Z " fill="#74F5F4" transform="translate(26,49)"/>
<path d="M0 0 C0.33 0 0.66 0 1 0 C1.33 8.58 1.66 17.16 2 26 C5.3 26.33 8.6 26.66 12 27 C12 28.32 12 29.64 12 31 C8.04 31 4.08 31 0 31 C0 20.77 0 10.54 0 0 Z " fill="#313E61" transform="translate(86,56)"/>
<path d="M0 0 C0.66 0 1.32 0 2 0 C2.02684679 2.64590014 2.04676357 5.29153096 2.0625 7.9375 C2.07087891 8.69224609 2.07925781 9.44699219 2.08789062 10.22460938 C2.09652441 12.14994313 2.05224333 14.07535581 2 16 C1.67 16.33 1.34 16.66 1 17 C0.76298761 19.85877909 0.57780818 22.69883297 0.4375 25.5625 C0.39431641 26.36880859 0.35113281 27.17511719 0.30664062 28.00585938 C0.20024738 30.00368805 0.09959112 32.0018207 0 34 C-0.33 34 -0.66 34 -1 34 C-1 25.42 -1 16.84 -1 8 C-3.64 7.67 -6.28 7.34 -9 7 C-9 6.67 -9 6.34 -9 6 C-6.36 6 -3.72 6 -1 6 C-1.020625 5.195625 -1.04125 4.39125 -1.0625 3.5625 C-1 1 -1 1 0 0 Z " fill="#131024" transform="translate(99,48)"/>
<path d="M0 0 C0.33 0.99 0.66 1.98 1 3 C1.99 3 2.98 3 4 3 C4 4.98 4 6.96 4 9 C4.66 9.33 5.32 9.66 6 10 C5.01 10 4.02 10 3 10 C3 8.68 3 7.36 3 6 C2.27409668 6.00523682 1.54819336 6.01047363 0.80029297 6.01586914 C-2.50812912 6.03673497 -5.81653731 6.04969069 -9.125 6.0625 C-10.83816406 6.07506836 -10.83816406 6.07506836 -12.5859375 6.08789062 C-13.69453125 6.09111328 -14.803125 6.09433594 -15.9453125 6.09765625 C-17.46922607 6.10551147 -17.46922607 6.10551147 -19.02392578 6.11352539 C-22.09114726 5.99652309 -24.98633134 5.56776417 -28 5 C-28 4.67 -28 4.34 -28 4 C-18.76 4 -9.52 4 0 4 C0 2.68 0 1.36 0 0 Z " fill="#17091B" transform="translate(158,83)"/>
<path d="M0 0 C0.33 0 0.66 0 1 0 C1.19644384 1.89492746 1.38177288 3.79100903 1.5625 5.6875 C1.66691406 6.74324219 1.77132812 7.79898438 1.87890625 8.88671875 C1.99277552 11.81426086 1.70848415 14.17131144 1 17 C-1.64 17 -4.28 17 -7 17 C-7 14.69 -7 12.38 -7 10 C-6.01 10 -5.02 10 -4 10 C-3.67 8.02 -3.34 6.04 -3 4 C-2.67 4 -2.34 4 -2 4 C-2 5.98 -2 7.96 -2 10 C-1.34 10 -0.68 10 0 10 C0 6.7 0 3.4 0 0 Z " fill="#0EA1CC" transform="translate(97,37)"/>
<path d="M0 0 C2.97 0 5.94 0 9 0 C8.67 1.65 8.34 3.3 8 5 C8.33 4.67 8.66 4.34 9 4 C9.33 4.99 9.66 5.98 10 7 C8.35 7 6.7 7 5 7 C5 7.66 5 8.32 5 9 C3.35 9 1.7 9 0 9 C0 6.03 0 3.06 0 0 Z " fill="#08AACD" transform="translate(158,117)"/>
<path d="M0 0 C2.31 0 4.62 0 7 0 C7.33 3.96 7.66 7.92 8 12 C11.3 12.33 14.6 12.66 18 13 C18 14.32 18 15.64 18 17 C14.04 17 10.08 17 6 17 C6 11.72 6 6.44 6 1 C4.02 1 2.04 1 0 1 C0 0.67 0 0.34 0 0 Z " fill="#364971" transform="translate(65,70)"/>
<path d="M0 0 C0.33 0.66 0.66 1.32 1 2 C2.98 2 4.96 2 7 2 C7 4.31 7 6.62 7 9 C4.03 9 1.06 9 -2 9 C-2.125 5.625 -2.125 5.625 -2 2 C-1.34 1.34 -0.68 0.68 0 0 Z " fill="#4AF1F2" transform="translate(139,107)"/>
<path d="M0 0 C5.61 0 11.22 0 17 0 C17 0.33 17 0.66 17 1 C12.05 1.33 7.1 1.66 2 2 C2 2.99 2 3.98 2 5 C1.34 5 0.68 5 0 5 C0 5.99 0 6.98 0 8 C1.32 8.33 2.64 8.66 4 9 C2.35 9 0.7 9 -1 9 C-1 11.64 -1 14.28 -1 17 C-1.99 17.33 -2.98 17.66 -4 18 C-4 13.71 -4 9.42 -4 5 C-3.34 5 -2.68 5 -2 5 C-2 4.34 -2 3.68 -2 3 C-1.34 3 -0.68 3 0 3 C0 2.01 0 1.02 0 0 Z " fill="#73BDC4" transform="translate(64,89)"/>
<path d="M0 0 C1.65 0 3.3 0 5 0 C5 4.29 5 8.58 5 13 C3.35 13 1.7 13 0 13 C0 8.71 0 4.42 0 0 Z " fill="#16081C" transform="translate(71,98)"/>
<path d="M0 0 C2.31 0 4.62 0 7 0 C7 2.97 7 5.94 7 9 C4.69 9 2.38 9 0 9 C0 6.03 0 3.06 0 0 Z " fill="#09A7D0" transform="translate(80,117)"/>
<path d="M0 0 C0.33 0 0.66 0 1 0 C1 6.93 1 13.86 1 21 C3.97 21 6.94 21 10 21 C10 21.66 10 22.32 10 23 C7.36 23 4.72 23 2 23 C2 26.63 2 30.26 2 34 C1.34 34 0.68 34 0 34 C0 22.78 0 11.56 0 0 Z " fill="#28D5EF" transform="translate(131,47)"/>
<path d="M0 0 C2.97 0 5.94 0 9 0 C9 0.66 9 1.32 9 2 C6.69 2 4.38 2 2 2 C2 3.98 2 5.96 2 8 C3.32 8 4.64 8 6 8 C6 9.32 6 10.64 6 12 C12.93 12 19.86 12 27 12 C27 12.33 27 12.66 27 13 C19.74 13 12.48 13 5 13 C5 11.68 5 10.36 5 9 C3.35 9 1.7 9 0 9 C0 6.03 0 3.06 0 0 Z " fill="#18CEE8" transform="translate(22,68)"/>
<path d="M0 0 C1.98 0 3.96 0 6 0 C6 0.66 6 1.32 6 2 C8.31 2.33 10.62 2.66 13 3 C13 4.32 13 5.64 13 7 C11.35 7 9.7 7 8 7 C8 6.34 8 5.68 8 5 C5.69 5.66 3.38 6.32 1 7 C0.67 5.68 0.34 4.36 0 3 C0.66 3 1.32 3 2 3 C2 2.34 2 1.68 2 1 C1.34 0.67 0.68 0.34 0 0 Z " fill="#116E59" transform="translate(8,119)"/>
<path d="M0 0 C0.66 0 1.32 0 2 0 C2 4.62 2 9.24 2 14 C1.67 13.34 1.34 12.68 1 12 C0.34 12 -0.32 12 -1 12 C-1.33 13.32 -1.66 14.64 -2 16 C-4.52197309 8.48520179 -4.52197309 8.48520179 -3.2421875 4.84375 C-2.125 2.9375 -2.125 2.9375 0 0 Z " fill="#1A041B" transform="translate(128,48)"/>
<path d="M0 0 C3.96 0 7.92 0 12 0 C12 0.66 12 1.32 12 2 C11.34 2 10.68 2 10 2 C10 2.66 10 3.32 10 4 C9.39671875 4.13277344 8.7934375 4.26554687 8.171875 4.40234375 C7.37265625 4.57894531 6.5734375 4.75554688 5.75 4.9375 C4.56664063 5.19853516 4.56664063 5.19853516 3.359375 5.46484375 C1.23121297 5.947556 -0.88532842 6.46163178 -3 7 C-3 6.01 -3 5.02 -3 4 C-2.34 4 -1.68 4 -1 4 C-0.67 2.68 -0.34 1.36 0 0 Z " fill="#0AA151" transform="translate(81,23)"/>
<path d="M0 0 C2.31 0 4.62 0 7 0 C7 0.66 7 1.32 7 2 C8.65 2 10.3 2 12 2 C12 3.32 12 4.64 12 6 C9.69 6.33 7.38 6.66 5 7 C5.33 5.35 5.66 3.7 6 2 C5.01 2.495 5.01 2.495 4 3 C4 4.32 4 5.64 4 7 C3.34 7 2.68 7 2 7 C1.67 7.66 1.34 8.32 1 9 C0.29925156 5.846632 0 3.27275026 0 0 Z " fill="#453150" transform="translate(110,138)"/>
<path d="M0 0 C0.66 0 1.32 0 2 0 C2 0.66 2 1.32 2 2 C10.25 2 18.5 2 27 2 C27 2.66 27 3.32 27 4 C18.09 4 9.18 4 0 4 C0 2.68 0 1.36 0 0 Z " fill="#5A6897" transform="translate(29,127)"/>
<path d="M0 0 C5.28 0 10.56 0 16 0 C16 0.66 16 1.32 16 2 C11.05 2 6.1 2 1 2 C0.34 3.65 -0.32 5.3 -1 7 C-3.97 7 -6.94 7 -10 7 C-10 6.34 -10 5.68 -10 5 C-8.72125 4.9175 -7.4425 4.835 -6.125 4.75 C-3.95365445 4.69632215 -3.95365445 4.69632215 -2 4 C-1.34 2.68 -0.68 1.36 0 0 Z " fill="#0F010E" transform="translate(137,143)"/>
<path d="M0 0 C0.99 0 1.98 0 3 0 C3.16874707 1.91648462 3.33491643 3.83319633 3.5 5.75 C3.5928125 6.81734375 3.685625 7.8846875 3.78125 8.984375 C3.95052283 11.3179218 4 13.66032182 4 16 C3.01 16 2.02 16 1 16 C0.67 16.99 0.34 17.98 0 19 C0 12.73 0 6.46 0 0 Z " fill="#6CF4F6" transform="translate(55,49)"/>
<path d="M0 0 C0.33 0 0.66 0 1 0 C1 7.26 1 14.52 1 22 C4.63 22 8.26 22 12 22 C12.66 22.66 13.32 23.32 14 24 C9.05 24 4.1 24 -1 24 C-0.67 16.08 -0.34 8.16 0 0 Z " fill="#070106" transform="translate(145,47)"/>
<path d="M0 0 C0 4.29 0 8.58 0 13 C-0.66 13 -1.32 13 -2 13 C-2 9.37 -2 5.74 -2 2 C-4.31 2 -6.62 2 -9 2 C-9 3.65 -9 5.3 -9 7 C-9.99 7.495 -9.99 7.495 -11 8 C-11 5.69 -11 3.38 -11 1 C-7.57067929 -0.71466036 -3.78283935 -0.05404056 0 0 Z " fill="#1ED5EB" transform="translate(98,68)"/>
<path d="M0 0 C0.66 0.66 1.32 1.32 2 2 C1.67 2.66 1.34 3.32 1 4 C3.97 4 6.94 4 10 4 C9.67 5.32 9.34 6.64 9 8 C3.39 8 -2.22 8 -8 8 C-8 7.67 -8 7.34 -8 7 C-5.36 6.67 -2.72 6.34 0 6 C-0.99 5.67 -1.98 5.34 -3 5 C-2.67 4.01 -2.34 3.02 -2 2 C-1.34 2 -0.68 2 0 2 C0 1.34 0 0.68 0 0 Z " fill="#0A5F34" transform="translate(99,23)"/>
<path d="M0 0 C0.33 0 0.66 0 1 0 C1.02505615 0.74161377 1.0501123 1.48322754 1.07592773 2.24731445 C1.19186132 5.60255328 1.31459985 8.95750944 1.4375 12.3125 C1.47681641 13.47974609 1.51613281 14.64699219 1.55664062 15.84960938 C1.61948242 17.52700195 1.61948242 17.52700195 1.68359375 19.23828125 C1.72025146 20.26993408 1.75690918 21.30158691 1.79467773 22.36450195 C1.90161242 25.10748258 1.90161242 25.10748258 3 28 C1.68 28 0.36 28 -1 28 C-1 28.66 -1 29.32 -1 30 C-2.65 29.67 -4.3 29.34 -6 29 C-6 28.34 -6 27.68 -6 27 C-4.35 27 -2.7 27 -1 27 C-0.67 18.09 -0.34 9.18 0 0 Z " fill="#2F3844" transform="translate(169,97)"/>
<path d="M0 0 C0.33 0.66 0.66 1.32 1 2 C1.99 2 2.98 2 4 2 C4 5.96 4 9.92 4 14 C4.66 14.33 5.32 14.66 6 15 C3.36 15.33 0.72 15.66 -2 16 C-2 15.34 -2 14.68 -2 14 C-1.01 14 -0.02 14 1 14 C0.67 9.38 0.34 4.76 0 0 Z " fill="#8EE2E4" transform="translate(83,93)"/>
<path d="M0 0 C3.96 0.33 7.92 0.66 12 1 C12 2.32 12 3.64 12 5 C8.04 5 4.08 5 0 5 C0 3.35 0 1.7 0 0 Z " fill="#42476C" transform="translate(53,82)"/>
<path d="M0 0 C3.3 0 6.6 0 10 0 C10 1.65 10 3.3 10 5 C6.7 5 3.4 5 0 5 C0 3.35 0 1.7 0 0 Z " fill="#5A3C5D" transform="translate(103,40)"/>
<path d="M0 0 C1.32 0 2.64 0 4 0 C4 0.66 4 1.32 4 2 C3.34 2 2.68 2 2 2 C2 5.63 2 9.26 2 13 C2.66 13 3.32 13 4 13 C4 13.66 4 14.32 4 15 C2.68 15 1.36 15 0 15 C-1.30459914 12.39080172 -1.1326594 10.41057385 -1.125 7.5 C-1.12757813 6.5203125 -1.13015625 5.540625 -1.1328125 4.53125 C-1 2 -1 2 0 0 Z " fill="#0A040E" transform="translate(6,120)"/>
<path d="M0 0 C2.97 0 5.94 0 9 0 C9 2.31 9 4.62 9 7 C8.34 7 7.68 7 7 7 C7 6.34 7 5.68 7 5 C4.69 5 2.38 5 0 5 C0 3.35 0 1.7 0 0 Z " fill="#633E69" transform="translate(76,40)"/>
<path d="M0 0 C-0.33 2.31 -0.66 4.62 -1 7 C-1.99 7 -2.98 7 -4 7 C-4 6.34 -4 5.68 -4 5 C-4.66 5 -5.32 5 -6 5 C-6 4.34 -6 3.68 -6 3 C-8.97 2.505 -8.97 2.505 -12 2 C-12 1.34 -12 0.68 -12 0 C-3.42857143 -1.28571429 -3.42857143 -1.28571429 0 0 Z " fill="#1A4A48" transform="translate(134,138)"/>
<path d="M0 0 C0 3.3 0 6.6 0 10 C-1.98 10.33 -3.96 10.66 -6 11 C-7.6415049 7.7169902 -6.51888624 4.57454967 -6 1 C-5.67 1.66 -5.34 2.32 -5 3 C-4.54625 2.505 -4.0925 2.01 -3.625 1.5 C-2 0 -2 0 0 0 Z " fill="#43EFF7" transform="translate(97,37)"/>
<path d="M0 0 C0.99 0.495 0.99 0.495 2 1 C2 5.29 2 9.58 2 14 C4.64 14 7.28 14 10 14 C10 14.66 10 15.32 10 16 C6.7 16 3.4 16 0 16 C0 10.72 0 5.44 0 0 Z " fill="#7DEDEF" transform="translate(69,97)"/>
<path d="M0 0 C2.97 0.33 5.94 0.66 9 1 C9 1.66 9 2.32 9 3 C9.66 3 10.32 3 11 3 C11 3.66 11 4.32 11 5 C5.25 6.125 5.25 6.125 3 5 C3 4.01 3 3.02 3 2 C2.401875 2.515625 1.80375 3.03125 1.1875 3.5625 C0.465625 4.036875 -0.25625 4.51125 -1 5 C-1.99 4.67 -2.98 4.34 -4 4 C-3.67 3.34 -3.34 2.68 -3 2 C-2.01 2 -1.02 2 0 2 C0 1.34 0 0.68 0 0 Z " fill="#0DB367" transform="translate(97,22)"/>
<path d="M0 0 C3.25 1.0625 3.25 1.0625 5.25 3.0625 C4.0125 2.959375 2.775 2.85625 1.5 2.75 C-0.69153035 2.66820179 -0.69153035 2.66820179 -2.75 3.0625 C-5.15406384 5.44092577 -5.15406384 5.44092577 -6.75 8.0625 C-7.41 8.0625 -8.07 8.0625 -8.75 8.0625 C-8.75 9.3825 -8.75 10.7025 -8.75 12.0625 C-9.74 12.0625 -10.73 12.0625 -11.75 12.0625 C-11.75 12.7225 -11.75 13.3825 -11.75 14.0625 C-12.41 14.0625 -13.07 14.0625 -13.75 14.0625 C-13.42 13.0725 -13.09 12.0825 -12.75 11.0625 C-12.09 11.0625 -11.43 11.0625 -10.75 11.0625 C-10.63914062 10.48113281 -10.52828125 9.89976563 -10.4140625 9.30078125 C-8.82122666 3.93198752 -5.6705652 0.09450942 0 0 Z " fill="#0D090C" transform="translate(92.75,10.9375)"/>
<path d="M0 0 C0 2.97 0 5.94 0 9 C1.98 9 3.96 9 6 9 C6 9.33 6 9.66 6 10 C-0.52307692 10.36923077 -0.52307692 10.36923077 -2.9375 8.5 C-3.288125 8.005 -3.63875 7.51 -4 7 C-4.66 7.66 -5.32 8.32 -6 9 C-6 6.69 -6 4.38 -6 2 C-2.25 0 -2.25 0 0 0 Z " fill="#08020C" transform="translate(90,46)"/>
<path d="M0 0 C0.66 0 1.32 0 2 0 C2 0.99 2 1.98 2 3 C6.62 3 11.24 3 16 3 C16 5.97 16 8.94 16 12 C15.67 12 15.34 12 15 12 C15 9.69 15 7.38 15 5 C10.05 5 5.1 5 0 5 C0 3.35 0 1.7 0 0 Z " fill="#20DFED" transform="translate(112,69)"/>
<path d="M0 0 C3.63 0 7.26 0 11 0 C11 1.32 11 2.64 11 4 C7.37 4 3.74 4 0 4 C0 2.68 0 1.36 0 0 Z " fill="#4C4C71" transform="translate(59,129)"/>
<path d="M0 0 C0.33 0.99 0.66 1.98 1 3 C4.3 3.33 7.6 3.66 11 4 C11 8.62 11 13.24 11 18 C10.67 18 10.34 18 10 18 C10 13.71 10 9.42 10 5 C8.02 5 6.04 5 4 5 C3.67 5.33 3.34 5.66 3 6 C1.00041636 6.04080783 -1.00045254 6.04254356 -3 6 C-2.625 3.5625 -2.625 3.5625 -2 1 C-1.34 0.67 -0.68 0.34 0 0 Z " fill="#43DDE6" transform="translate(66,93)"/>
<path d="M0 0 C0.33 0 0.66 0 1 0 C1 2.31 1 4.62 1 7 C1.66 6.67 2.32 6.34 3 6 C3 4.02 3 2.04 3 0 C5 1.125 5 1.125 7 3 C7.25 6.1875 7.25 6.1875 7 9 C4.69 9 2.38 9 0 9 C0 6.03 0 3.06 0 0 Z " fill="#04A9D1" transform="translate(61,117)"/>
<path d="M0 0 C3.3 0 6.6 0 10 0 C10 3.96 10 7.92 10 12 C9.34 12 8.68 12 8 12 C8 8.7 8 5.4 8 2 C5.36 2 2.72 2 0 2 C0 1.34 0 0.68 0 0 Z " fill="#ACF1F1" transform="translate(88,56)"/>
<path d="M0 0 C1.32 0 2.64 0 4 0 C4.33 0.99 4.66 1.98 5 3 C4.67 3.33 4.34 3.66 4 4 C3.95936168 5.66617115 3.957279 7.33388095 4 9 C3.34 9 2.68 9 2 9 C1.67 12.3 1.34 15.6 1 19 C0.67 19 0.34 19 0 19 C0 12.73 0 6.46 0 0 Z " fill="#74F2F7" transform="translate(104,49)"/>
<path d="M0 0 C0.33 0 0.66 0 1 0 C1.20190089 6.35987804 0.6277833 11.85221129 -1 18 C-1.33 18 -1.66 18 -2 18 C-2 12.72 -2 7.44 -2 2 C-1.34 2 -0.68 2 0 2 C0 1.34 0 0.68 0 0 Z " fill="#432E52" transform="translate(89,138)"/>
<path d="M0 0 C2.64 0 5.28 0 8 0 C8 1.65 8 3.3 8 5 C5.36 5 2.72 5 0 5 C0 3.35 0 1.7 0 0 Z " fill="#452C4C" transform="translate(44,101)"/>
<path d="M0 0 C0.33 0 0.66 0 1 0 C1 2.64 1 5.28 1 8 C0.01 8 -0.98 8 -2 8 C-2 8.66 -2 9.32 -2 10 C-0.68 10 0.64 10 2 10 C2 10.66 2 11.32 2 12 C0.68 12 -0.64 12 -2 12 C-2 13.65 -2 15.3 -2 17 C-2.66 17 -3.32 17 -4 17 C-4 13.7 -4 10.4 -4 7 C-2.68 7 -1.36 7 0 7 C0 4.69 0 2.38 0 0 Z " fill="#8AF6F7" transform="translate(26,49)"/>
<path d="M0 0 C2 1 2 1 3 3 C2.83219837 5.69565202 2.38844355 8.32405554 2 11 C1.34 11 0.68 11 0 11 C0 12.65 0 14.3 0 16 C-0.33 16 -0.66 16 -1 16 C-1.02685095 13.52076199 -1.04676547 11.0418116 -1.0625 8.5625 C-1.07506836 7.50192383 -1.07506836 7.50192383 -1.08789062 6.41992188 C-1.09653588 4.61306441 -1.05220011 2.80612397 -1 1 C-0.67 0.67 -0.34 0.34 0 0 Z " fill="#434F62" transform="translate(100,32)"/>
<path d="M0 0 C2.97 0 5.94 0 9 0 C9 1.32 9 2.64 9 4 C6.03 4 3.06 4 0 4 C0 2.68 0 1.36 0 0 Z " fill="#684471" transform="translate(90,138)"/>
<path d="M0 0 C3.63 0 7.26 0 11 0 C11 2.31 11 4.62 11 7 C10.67 5.68 10.34 4.36 10 3 C8.906875 3.020625 7.81375 3.04125 6.6875 3.0625 C3 3 3 3 0 2 C0 1.34 0 0.68 0 0 Z " fill="#214368" transform="translate(67,118)"/>
<path d="M0 0 C0 1.65 0 3.3 0 5 C2.97 5 5.94 5 9 5 C9 5.66 9 6.32 9 7 C7.5629191 7.05422947 6.12524538 7.09289723 4.6875 7.125 C3.88699219 7.14820313 3.08648437 7.17140625 2.26171875 7.1953125 C0 7 0 7 -3 5 C-3 3.68 -3 2.36 -3 1 C-1 0 -1 0 0 0 Z " fill="#0A0007" transform="translate(86,159)"/>
<path d="M0 0 C2.64 0.33 5.28 0.66 8 1 C8 2.65 8 4.3 8 6 C6.68 5.67 5.36 5.34 4 5 C4 4.34 4 3.68 4 3 C2.35 3 0.7 3 -1 3 C-0.67 2.01 -0.34 1.02 0 0 Z " fill="#BEBAC4" transform="translate(90,13)"/>
<path d="M0 0 C1.32 0.66 2.64 1.32 4 2 C4 3.65 4 5.3 4 7 C1.36 7 -1.28 7 -4 7 C-3.34 6.67 -2.68 6.34 -2 6 C-1.27306096 4.02111039 -0.60183749 2.02045442 0 0 Z " fill="#6E6576" transform="translate(98,14)"/>
<path d="M0 0 C0.99 0 1.98 0 3 0 C3.33 0.99 3.66 1.98 4 3 C3.34 3 2.68 3 2 3 C2 3.66 2 4.32 2 5 C3.98 4.67 5.96 4.34 8 4 C8 4.99 8 5.98 8 7 C5.03 7 2.06 7 -1 7 C-1 6.34 -1 5.68 -1 5 C-0.34 5 0.32 5 1 5 C0.67 3.35 0.34 1.7 0 0 Z " fill="#321C39" transform="translate(113,140)"/>
<path d="M0 0 C0.33 0 0.66 0 1 0 C1 1.98 1 3.96 1 6 C1.66 6 2.32 6 3 6 C3 5.34 3 4.68 3 4 C7.62 4 12.24 4 17 4 C17 4.33 17 4.66 17 5 C15.10507994 5.33848652 13.20901534 5.67056911 11.3125 6 C10.25675781 6.185625 9.20101562 6.37125 8.11328125 6.5625 C5.35095938 6.95068074 2.78257957 7.08259976 0 7 C0 4.69 0 2.38 0 0 Z " fill="#19CCE4" transform="translate(112,112)"/>
<path d="M0 0 C2.97 0 5.94 0 9 0 C9.33 0.99 9.66 1.98 10 3 C6.37 3 2.74 3 -1 3 C-0.67 2.01 -0.34 1.02 0 0 Z " fill="#0E0B0F" transform="translate(132,44)"/>
<path d="M0 0 C0.33 0 0.66 0 1 0 C1 1.65 1 3.3 1 5 C2.11375 4.95875 3.2275 4.9175 4.375 4.875 C8 5 8 5 10 7 C6.37 7 2.74 7 -1 7 C-1.04254356 5.00045254 -1.04080783 2.99958364 -1 1 C-0.67 0.67 -0.34 0.34 0 0 Z " fill="#18BAD5" transform="translate(88,75)"/>
<path d="M0 0 C0.33 0 0.66 0 1 0 C1 4.29 1 8.58 1 13 C2.98 13 4.96 13 7 13 C7 13.66 7 14.32 7 15 C4.36 15 1.72 15 -1 15 C-0.67 10.05 -0.34 5.1 0 0 Z " fill="#85D4D9" transform="translate(64,47)"/>
<path d="M0 0 C0.66 0 1.32 0 2 0 C2 3.63 2 7.26 2 11 C1.01 11 0.02 11 -1 11 C-1.14285714 3.57142857 -1.14285714 3.57142857 0 0 Z " fill="#381D3F" transform="translate(86,36)"/>
<path d="M0 0 C1.22589844 0.01353516 1.22589844 0.01353516 2.4765625 0.02734375 C3.41628906 0.04474609 3.41628906 0.04474609 4.375 0.0625 C4.375 0.7225 4.375 1.3825 4.375 2.0625 C1.96954362 3.26522819 0.42503047 3.16321472 -2.25 3.125 C-3.47589844 3.11146484 -3.47589844 3.11146484 -4.7265625 3.09765625 C-5.66628906 3.08025391 -5.66628906 3.08025391 -6.625 3.0625 C-6.625 2.4025 -6.625 1.7425 -6.625 1.0625 C-4.21954362 -0.14022819 -2.67503047 -0.03821472 0 0 Z " fill="#10DA75" transform="translate(88.625,22.9375)"/>
<path d="M0 0 C0.99 0.495 0.99 0.495 2 1 C2 1.66 2 2.32 2 3 C2.556875 3.20625 3.11375 3.4125 3.6875 3.625 C6.92501302 5.55000774 8.68231141 8.03850902 11 11 C10.01 11 9.02 11 8 11 C8 10.34 8 9.68 8 9 C7.34 9 6.68 9 6 9 C6 8.34 6 7.68 6 7 C5.34 7 4.68 7 4 7 C4 6.34 4 5.68 4 5 C2.68 5 1.36 5 0 5 C0 3.35 0 1.7 0 0 Z " fill="#111517" transform="translate(102,18)"/>
<path d="M0 0 C1.98 0 3.96 0 6 0 C6 1.32 6 2.64 6 4 C3 6 3 6 0 6 C0 4.02 0 2.04 0 0 Z " fill="#774B7A" transform="translate(14,112)"/>
<path d="M0 0 C2.97 0 5.94 0 9 0 C9 0.99 9 1.98 9 3 C6.03 3 3.06 3 0 3 C0 2.01 0 1.02 0 0 Z " fill="#442F4C" transform="translate(14,118)"/>
<path d="M0 0 C1.65 0 3.3 0 5 0 C5 4.29 5 8.58 5 13 C3.35 13 1.7 13 0 13 C1.32 12.67 2.64 12.34 4 12 C4 9.03 4 6.06 4 3 C3.01 3 2.02 3 1 3 C0.67 2.01 0.34 1.02 0 0 Z " fill="#1B3043" transform="translate(71,98)"/>
<path d="M0 0 C0.66 0.33 1.32 0.66 2 1 C2 4.96 2 8.92 2 13 C1.01 13.495 1.01 13.495 0 14 C-1.03115279 10.73086376 -0.9638984 8.13958652 -0.5625 4.75 C-0.46066406 3.85796875 -0.35882813 2.9659375 -0.25390625 2.046875 C-0.17011719 1.37140625 -0.08632812 0.6959375 0 0 Z " fill="#070109" transform="translate(159,72)"/>
<path d="M0 0 C2.31 0 4.62 0 7 0 C7 0.33 7 0.66 7 1 C5.35 1 3.7 1 2 1 C2 1.66 2 2.32 2 3 C2.66 3 3.32 3 4 3 C4 4.32 4 5.64 4 7 C3.34 7 2.68 7 2 7 C1.67 7.66 1.34 8.32 1 9 C0.29925156 5.846632 0 3.27275026 0 0 Z " fill="#503A5A" transform="translate(110,138)"/>
<path d="M0 0 C2.97 0 5.94 0 9 0 C9 0.33 9 0.66 9 1 C7.35 1 5.7 1 4 1 C4 1.66 4 2.32 4 3 C3.01 3 2.02 3 1 3 C0.67 4.32 0.34 5.64 0 7 C-0.99 6.67 -1.98 6.34 -3 6 C-2.67 5.34 -2.34 4.68 -2 4 C-1.34 4 -0.68 4 0 4 C0 2.68 0 1.36 0 0 Z " fill="#18553C" transform="translate(93,21)"/>
<path d="M0 0 C1.32 0 2.64 0 4 0 C4 1.32 4 2.64 4 4 C3.34 4 2.68 4 2 4 C2 4.66 2 5.32 2 6 C1.01 6 0.02 6 -1 6 C-1.042721 4.33388095 -1.04063832 2.66617115 -1 1 C-0.67 0.67 -0.34 0.34 0 0 Z " fill="#1B7559" transform="translate(91,145)"/>
<path d="M0 0 C0 3.96 0 7.92 0 12 C-0.33 12 -0.66 12 -1 12 C-1 9.36 -1 6.72 -1 4 C-2.65 4 -4.3 4 -6 4 C-6 3.34 -6 2.68 -6 2 C-3 0 -3 0 0 0 Z " fill="#93F5F6" transform="translate(147,105)"/>
<path d="M0 0 C5.28 0 10.56 0 16 0 C16.33 1.65 16.66 3.3 17 5 C16.01 4.67 15.02 4.34 14 4 C14 3.01 14 2.02 14 1 C9.38 1 4.76 1 0 1 C0 0.67 0 0.34 0 0 Z " fill="#C2FBFB" transform="translate(65,90)"/>
<path d="M0 0 C2.64 0 5.28 0 8 0 C7.67 1.32 7.34 2.64 7 4 C5.02 4 3.04 4 1 4 C0.67 2.68 0.34 1.36 0 0 Z " fill="#087440" transform="translate(101,27)"/>
<path d="M0 0 C0.33 1.32 0.66 2.64 1 4 C1.99 4 2.98 4 4 4 C3.67 5.65 3.34 7.3 3 9 C1.68 9 0.36 9 -1 9 C-0.67 6.03 -0.34 3.06 0 0 Z " fill="#212639" transform="translate(89,147)"/>
<path d="M0 0 C0.33 0 0.66 0 1 0 C1.144375 1.093125 1.28875 2.18625 1.4375 3.3125 C1.88288104 6.93122987 1.88288104 6.93122987 3 10 C2.01 10 1.02 10 0 10 C0 12.31 0 14.62 0 17 C-0.33 17 -0.66 17 -1 17 C-1.12036664 11.22240116 -0.8320582 5.72040011 0 0 Z " fill="#96FBFB" transform="translate(61,99)"/>
<path d="M0 0 C2.64 0 5.28 0 8 0 C8 2.31 8 4.62 8 7 C6.68 6.67 5.36 6.34 4 6 C4.66 4.35 5.32 2.7 6 1 C4.02 1 2.04 1 0 1 C0 0.67 0 0.34 0 0 Z " fill="#0A040A" transform="translate(78,33)"/>
<path d="M0 0 C1.32 0.33 2.64 0.66 4 1 C3.67 3.31 3.34 5.62 3 8 C2.01 8 1.02 8 0 8 C0 5.36 0 2.72 0 0 Z " fill="#177664" transform="translate(130,137)"/>
<path d="M0 0 C1.98 0 3.96 0 6 0 C5.67 1.32 5.34 2.64 5 4 C3.35 4 1.7 4 0 4 C0 2.68 0 1.36 0 0 Z " fill="#5A3E67" transform="translate(100,138)"/>
<path d="M0 0 C0.66 0.33 1.32 0.66 2 1 C2.59355614 3.64860427 2.74209269 6.29197322 3 9 C1.02 9 -0.96 9 -3 9 C-2.34 8.34 -1.68 7.68 -1 7 C-0.59952556 4.67724823 -0.2602896 2.34260643 0 0 Z " fill="#0C0810" transform="translate(11,110)"/>
<path d="M0 0 C0.99 0 1.98 0 3 0 C3 0.99 3 1.98 3 3 C3.66 3 4.32 3 5 3 C5 3.66 5 4.32 5 5 C5.66 5 6.32 5 7 5 C7 6.32 7 7.64 7 9 C6.34 9 5.68 9 5 9 C5 8.34 5 7.68 5 7 C4.34 7 3.68 7 3 7 C2.87625 6.030625 2.7525 5.06125 2.625 4.0625 C2.41875 3.051875 2.2125 2.04125 2 1 C1.34 0.67 0.68 0.34 0 0 Z " fill="#80C0C6" transform="translate(106,94)"/>
<path d="M0 0 C0.66 0 1.32 0 2 0 C2 0.66 2 1.32 2 2 C2.99 2 3.98 2 5 2 C5 2.99 5 3.98 5 5 C3.35 5.33 1.7 5.66 0 6 C0 4.02 0 2.04 0 0 Z " fill="#9AF2F5" transform="translate(159,91)"/>
<path d="M0 0 C6.6 0.6 6.6 0.6 9 3 C7.01432292 2.93489583 5.02864583 2.86979167 3.04296875 2.8046875 C0.68640281 2.86745538 0.68640281 2.86745538 -2 5 C-1.125 1.125 -1.125 1.125 0 0 Z " fill="#1B151C" transform="translate(89,11)"/>
<path d="M0 0 C0.99 0.33 1.98 0.66 3 1 C3 1.66 3 2.32 3 3 C6.63 3 10.26 3 14 3 C14 3.33 14 3.66 14 4 C9.71 4 5.42 4 1 4 C0.67 2.68 0.34 1.36 0 0 Z " fill="#100111" transform="translate(65,150)"/>
<path d="M0 0 C1.32 0.66 2.64 1.32 4 2 C3.01 2 2.02 2 1 2 C1.33 3.32 1.66 4.64 2 6 C-0.31 6 -2.62 6 -5 6 C-5 5.34 -5 4.68 -5 4 C-3.35 4 -1.7 4 0 4 C0 2.68 0 1.36 0 0 Z " fill="#321A37" transform="translate(109,141)"/>
<path d="M0 0 C1.98 0 3.96 0 6 0 C6 0.66 6 1.32 6 2 C5.34 2 4.68 2 4 2 C4.33 2.99 4.66 3.98 5 5 C3.35 5 1.7 5 0 5 C0 4.34 0 3.68 0 3 C0.66 3 1.32 3 2 3 C2 2.34 2 1.68 2 1 C1.34 0.67 0.68 0.34 0 0 Z " fill="#119461" transform="translate(8,119)"/>
<path d="M0 0 C2.5 2.3125 2.5 2.3125 5 5 C5 5.99 5 6.98 5 8 C4.01 8 3.02 8 2 8 C2 7.01 2 6.02 2 5 C1.34 5 0.68 5 0 5 C0 3.35 0 1.7 0 0 Z " fill="#0B070C" transform="translate(162,87)"/>
<path d="M0 0 C0.66 0.33 1.32 0.66 2 1 C1.01 2.485 1.01 2.485 0 4 C-0.66 4 -1.32 4 -2 4 C-2 4.66 -2 5.32 -2 6 C-3.32 6.33 -4.64 6.66 -6 7 C-6.33 6.34 -6.66 5.68 -7 5 C-6.01 5 -5.02 5 -4 5 C-4 4.34 -4 3.68 -4 3 C-2 1.375 -2 1.375 0 0 Z " fill="#150314" transform="translate(166,131)"/>
<path d="M0 0 C0.66 0 1.32 0 2 0 C1.34 1.65 0.68 3.3 0 5 C-1.98 5 -3.96 5 -6 5 C-6 4.34 -6 3.68 -6 3 C-4.35 3 -2.7 3 -1 3 C-0.67 2.01 -0.34 1.02 0 0 Z " fill="#10090E" transform="translate(112,31)"/>
<path d="M0 0 C1.65 1.32 3.3 2.64 5 4 C0.545 4.495 0.545 4.495 -4 5 C-4 4.34 -4 3.68 -4 3 C-3.34 3 -2.68 3 -2 3 C-2 2.34 -2 1.68 -2 1 C-1.34 0.67 -0.68 0.34 0 0 Z " fill="#0B3C2B" transform="translate(85,27)"/>
<path d="M0 0 C0.625 1.875 0.625 1.875 1 4 C0.34 4.66 -0.32 5.32 -1 6 C-1.99 6 -2.98 6 -4 6 C-4 5.01 -4 4.02 -4 3 C-2 1.3125 -2 1.3125 0 0 Z " fill="#0E010D" transform="translate(121,150)"/>
<path d="M0 0 C2.35448165 2.55068845 2.98327924 3.71017358 3.1875 7.25 C3.125625 8.1575 3.06375 9.065 3 10 C1.68 9.67 0.36 9.34 -1 9 C-0.67 6.03 -0.34 3.06 0 0 Z " fill="#26D6EA" transform="translate(91,38)"/>
<path d="M0 0 C0.66 0 1.32 0 2 0 C2 1.32 2 2.64 2 4 C2.66 4.33 3.32 4.66 4 5 C3.34 5 2.68 5 2 5 C1.67 5.99 1.34 6.98 1 8 C0.67 8 0.34 8 0 8 C0 5.36 0 2.72 0 0 Z " fill="#64F5F6" transform="translate(27,49)"/>
<path d="M0 0 C0.66 0.33 1.32 0.66 2 1 C2 1.66 2 2.32 2 3 C1.01 3 0.02 3 -1 3 C-1 3.66 -1 4.32 -1 5 C-1.66 5 -2.32 5 -3 5 C-3.33 5.99 -3.66 6.98 -4 8 C-4.25 5.6875 -4.25 5.6875 -4 3 C-2 1.1875 -2 1.1875 0 0 Z " fill="#0A050B" transform="translate(72,44)"/>
</svg>
